# Blender 3.6.15
# www.blender.org
mtllib glass.mtl
o Plane.003
v 0.072648 -0.731041 -1.914735
v 0.011524 -0.731041 -1.820564
v -0.004129 -0.731041 -1.835786
v -0.558328 -0.666531 -1.265911
v -0.461724 -0.666531 -1.333928
v -0.477378 -0.666531 -1.349151
v -0.234526 -0.666531 -1.598872
v -0.142079 -0.666531 -1.662615
v -0.157733 -0.666531 -1.677838
v -0.299791 -0.731041 -1.500443
v -0.218873 -0.666531 -1.583649
v -0.299823 -0.666531 -1.500409
v -0.645066 -0.666531 -1.145400
v -0.542741 -0.731041 -1.250620
v -0.542675 -0.666531 -1.250688
v 0.088301 -0.666531 -1.899513
v 0.011508 -0.666531 -1.820547
v -0.234461 -0.731041 -1.598940
v -0.315444 -0.731041 -1.515666
v -0.865502 -0.666531 -0.950047
v -0.747458 -0.666531 -1.040112
v -0.763111 -0.666531 -1.055335
v -0.558394 -0.731041 -1.265843
v -0.645110 -0.731041 -1.145355
v -0.660764 -0.731041 -1.160578
v -0.635856 -1.624673 -1.186190
v -0.559612 -1.923158 -1.264591
v -0.559307 -1.624673 -1.264904
v -0.314835 -1.923158 -1.516292
v -0.233547 -1.624673 -1.599879
v -0.314987 -1.624673 -1.516135
v -0.315477 -0.664710 -1.515632
v -0.234847 -0.336011 -1.598542
v -0.315637 -0.336011 -1.515467
v -0.634881 -0.343054 -1.187192
v -0.558328 -0.664710 -1.265911
v -0.558007 -0.336011 -1.266241
v -0.004146 -0.664709 -1.835770
v 0.072648 -0.364184 -1.914736
v -0.004226 -0.480120 -1.835687
v -0.004387 0.257996 -1.835522
v 0.072648 0.537391 -1.914735
v -0.004467 0.565565 -1.835440
v -0.004306 0.099658 -1.835604
v 0.072648 0.236866 -1.914735
v -0.004387 0.257996 -1.835522
v -0.004226 -0.480120 -1.835687
v 0.072648 -0.063659 -1.914735
v -0.004306 0.099658 -1.835604
v -0.235489 0.321387 -1.597882
v -0.158696 0.621912 -1.676848
v -0.235810 0.650086 -1.597552
v -0.081421 0.279126 -1.756309
v -0.004467 0.565565 -1.835440
v -0.081581 0.593738 -1.756144
v -0.235168 -0.007312 -1.598212
v -0.158455 0.300257 -1.677095
v -0.235489 0.321387 -1.597882
v -0.158214 -0.021399 -1.677343
v -0.081421 0.279126 -1.756309
v -0.158455 0.300257 -1.677095
v -0.081260 -0.035485 -1.756474
v -0.004387 0.257996 -1.835522
v -0.234847 -0.336011 -1.598542
v -0.158214 -0.021399 -1.677343
v -0.235168 -0.007312 -1.598212
v -0.157974 -0.343054 -1.677590
v -0.081260 -0.035485 -1.756474
v -0.158214 -0.021399 -1.677343
v -0.081100 -0.350098 -1.756639
v -0.234526 -0.664709 -1.598872
v -0.157974 -0.343054 -1.677590
v -0.234847 -0.336011 -1.598542
v -0.157733 -0.664710 -1.677838
v -0.081100 -0.350098 -1.756639
v -0.157974 -0.343054 -1.677590
v -0.080939 -0.664709 -1.756804
v -0.004226 -0.480120 -1.835687
v -0.634159 0.621912 -1.187935
v -0.557366 0.321387 -1.266901
v -0.557045 0.650086 -1.267231
v -0.634400 0.300257 -1.187687
v -0.557686 -0.007312 -1.266571
v -0.557366 0.321387 -1.266901
v -0.634640 -0.021399 -1.187440
v -0.558007 -0.336011 -1.266241
v -0.557686 -0.007312 -1.266571
v -0.865502 0.537391 -0.950047
v -0.788468 0.257996 -1.029261
v -0.788388 0.565565 -1.029343
v -0.865502 0.236866 -0.950047
v -0.788548 -0.049572 -1.029178
v -0.788468 0.257996 -1.029261
v -0.711594 -0.035485 -1.108309
v -0.711434 0.423735 -1.108474
v -0.711434 0.423735 -1.108474
v -0.634640 -0.021399 -1.187440
v -0.634400 0.300257 -1.187687
v -0.865502 -0.063659 -0.950047
v -0.788629 -0.289889 -1.029096
v -0.788548 -0.049573 -1.029178
v -0.711755 -0.350098 -1.108144
v -0.711594 -0.035486 -1.108309
v -0.711594 -0.035486 -1.108309
v -0.634881 -0.343054 -1.187192
v -0.865502 -0.364184 -0.950047
v -0.788709 -0.664710 -1.029013
v -0.788629 -0.289889 -1.029096
v -0.711915 -0.664710 -1.107979
v -0.711755 -0.350098 -1.108144
v -0.711755 -0.350098 -1.108144
v -0.635122 -0.664710 -1.186945
v -0.634881 -0.343054 -1.187192
v -0.315958 0.399158 -1.515137
v -0.316119 0.650086 -1.514972
v -0.315798 -0.007312 -1.515302
v -0.315958 0.399158 -1.515137
v -0.315637 -0.336011 -1.515467
v -0.315798 -0.007312 -1.515302
v -0.476896 0.321387 -1.349646
v -0.476736 0.650086 -1.349811
v -0.557366 0.321387 -1.266901
v -0.477057 -0.007312 -1.349481
v -0.476896 0.321387 -1.349646
v -0.396427 -0.007312 -1.432391
v -0.396427 0.321387 -1.432391
v -0.396427 -0.007312 -1.432391
v -0.315958 0.399158 -1.515137
v -0.396427 0.321387 -1.432391
v -0.557686 -0.007312 -1.266571
v -0.477217 -0.336011 -1.349316
v -0.477057 -0.007312 -1.349481
v -0.477057 -0.007312 -1.349481
v -0.396427 -0.336011 -1.432391
v -0.396427 -0.007312 -1.432391
v -0.396427 -0.336011 -1.432391
v -0.315798 -0.007312 -1.515302
v -0.396427 -0.007312 -1.432391
v -0.558007 -0.336011 -1.266241
v -0.477378 -0.664710 -1.349151
v -0.477217 -0.336011 -1.349316
v -0.477217 -0.336011 -1.349316
v -0.396427 -0.664710 -1.432391
v -0.396427 -0.336011 -1.432391
v -0.396427 -0.664710 -1.432391
v -0.396427 -0.336011 -1.432391
v -0.315292 -1.027704 -1.515822
v -0.234461 -0.729220 -1.598940
v -0.315444 -0.729220 -1.515665
v -0.315139 -1.326189 -1.515979
v -0.234156 -1.027704 -1.599253
v -0.315292 -1.027704 -1.515822
v -0.314987 -1.624673 -1.516135
v -0.233852 -1.326189 -1.599566
v -0.315139 -1.326189 -1.515979
v -0.558394 -0.729220 -1.265843
v -0.477563 -1.027704 -1.348961
v -0.477411 -0.729220 -1.349117
v -0.477411 -0.729220 -1.349117
v -0.396427 -1.027704 -1.432391
v -0.396427 -0.729220 -1.432391
v -0.396427 -1.027704 -1.432391
v -0.396427 -0.729220 -1.432391
v -0.558698 -1.027704 -1.265530
v -0.477715 -1.326189 -1.348804
v -0.477563 -1.027704 -1.348961
v -0.477563 -1.027704 -1.348961
v -0.396427 -1.326189 -1.432391
v -0.396427 -1.027704 -1.432391
v -0.559003 -1.326189 -1.265217
v -0.477867 -1.624673 -1.348648
v -0.477715 -1.326189 -1.348804
v -0.477715 -1.326189 -1.348804
v -0.396427 -1.624673 -1.432391
v -0.396427 -1.326189 -1.432391
v -0.315139 -1.326189 -1.515979
v -0.478019 -1.923158 -1.348491
v -0.477867 -1.624673 -1.348648
v -0.477867 -1.624673 -1.348648
v -0.396427 -1.923158 -1.432391
v -0.396427 -1.624673 -1.432391
v -0.396427 -1.923158 -1.432391
v -0.314987 -1.624673 -1.516135
v -0.396427 -1.624673 -1.432391
v -0.635171 -0.729220 -1.186894
v -0.558698 -1.027704 -1.265530
v -0.558394 -0.729220 -1.265843
v -0.635399 -1.027704 -1.186659
v -0.559003 -1.326189 -1.265217
v -0.558698 -1.027704 -1.265530
v -0.635628 -1.326189 -1.186424
v -0.559307 -1.624673 -1.264904
v -0.559003 -1.326189 -1.265217
v -0.865502 -0.729220 -0.950047
v -0.788801 -1.027704 -1.028918
v -0.788725 -0.729220 -1.028996
v -0.788725 -0.729220 -1.028996
v -0.712100 -1.027704 -1.107789
v -0.711948 -0.729220 -1.107945
v -0.711948 -0.729220 -1.107945
v -0.635399 -1.027704 -1.186659
v -0.865502 -1.027704 -0.950047
v -0.788877 -1.106048 -1.028840
v -0.788801 -1.027704 -1.028918
v -0.788801 -1.027704 -1.028918
v -0.712253 -1.326189 -1.107632
v -0.712100 -1.027704 -1.107789
v -0.712100 -1.027704 -1.107789
v -0.635628 -1.326189 -1.186424
v -0.865502 -1.326189 -0.950047
v -0.788954 -1.514488 -1.028761
v -0.788877 -1.106048 -1.028840
v -0.788877 -1.106048 -1.028840
v -0.712405 -1.807321 -1.107476
v -0.712253 -1.326189 -1.107632
v -0.712253 -1.326189 -1.107632
v -0.635856 -1.624673 -1.186190
v -0.865502 -1.624673 -0.950047
v -0.789030 -1.923158 -1.028683
v -0.788954 -1.514488 -1.028761
v -0.788954 -1.514488 -1.028761
v -0.712557 -1.923158 -1.107319
v -0.712405 -1.807321 -1.107476
v -0.712405 -1.807321 -1.107476
v -0.636084 -1.923158 -1.185955
v -0.635856 -1.624673 -1.186190
v -0.004053 -1.027704 -1.835865
v 0.072648 -0.729220 -1.914736
v -0.004129 -0.729220 -1.835786
v -0.003977 -1.326189 -1.835943
v 0.072648 -1.027704 -1.914736
v -0.004053 -1.027704 -1.835865
v -0.003901 -1.624673 -1.836021
v 0.072648 -1.326189 -1.914736
v -0.003977 -1.326189 -1.835943
v -0.234156 -1.027704 -1.599253
v -0.157683 -0.729220 -1.677889
v -0.234461 -0.729220 -1.598940
v -0.157455 -1.027704 -1.678123
v -0.080906 -0.729220 -1.756838
v -0.080754 -1.027704 -1.756994
v -0.004129 -0.729220 -1.835786
v -0.233852 -1.326189 -1.599566
v -0.157455 -1.027704 -1.678123
v -0.234156 -1.027704 -1.599253
v -0.157227 -1.326189 -1.678358
v -0.080754 -1.027704 -1.756994
v -0.080602 -1.326189 -1.757151
v -0.233547 -1.624673 -1.599879
v -0.157227 -1.326189 -1.678358
v -0.233852 -1.326189 -1.599566
v -0.156998 -1.624673 -1.678593
v -0.080602 -1.326189 -1.757151
v -0.080450 -1.624673 -1.757307
v -0.233243 -1.923158 -1.600192
v -0.156998 -1.624673 -1.678593
v -0.156770 -1.923158 -1.678828
v -0.080450 -1.624673 -1.757307
v -0.156998 -1.624673 -1.678593
v -0.080297 -1.923158 -1.757464
v -0.003901 -1.624673 -1.836021
v -0.080450 -1.624673 -1.757307
v -0.559612 -1.923158 -1.264591
v -0.315477 -0.664710 -1.515632
v -0.234526 -0.664710 -1.598872
v -0.234847 -0.336011 -1.598542
v -0.634881 -0.343054 -1.187192
v -0.635122 -0.664710 -1.186945
v -0.558328 -0.664710 -1.265911
v -0.004146 -0.664709 -1.835770
v 0.072648 -0.664709 -1.914736
v 0.072648 -0.364184 -1.914736
v 0.072648 0.236866 -1.914735
v -0.158696 0.621912 -1.676848
v -0.158455 0.300257 -1.677095
v -0.081421 0.279126 -1.756309
v -0.004467 0.565565 -1.835440
v -0.235168 -0.007312 -1.598212
v -0.158214 -0.021399 -1.677343
v -0.158455 0.300257 -1.677095
v -0.081260 -0.035485 -1.756474
v -0.004306 0.099658 -1.835604
v -0.004387 0.257996 -1.835522
v -0.234847 -0.336011 -1.598542
v -0.234526 -0.664710 -1.598872
v -0.080939 -0.664709 -1.756804
v -0.004146 -0.664709 -1.835770
v -0.004226 -0.480120 -1.835687
v -0.634159 0.621912 -1.187935
v -0.634400 0.300257 -1.187687
v -0.634640 -0.021399 -1.187440
v -0.557686 -0.007312 -1.266571
v -0.634640 -0.021399 -1.187440
v -0.634881 -0.343054 -1.187192
v -0.558007 -0.336011 -1.266241
v -0.865502 0.537391 -0.950047
v -0.788388 0.565565 -1.029343
v -0.788468 0.257996 -1.029261
v -0.711434 0.423735 -1.108474
v -0.711274 0.593738 -1.108639
v -0.634400 0.300257 -1.187687
v -0.788468 0.257996 -1.029261
v -0.788548 -0.049573 -1.029178
v -0.711594 -0.035486 -1.108309
v -0.711434 0.423735 -1.108474
v -0.634640 -0.021399 -1.187440
v -0.788548 -0.049573 -1.029178
v -0.711594 -0.035486 -1.108309
v -0.865502 -0.364184 -0.950047
v -0.865502 -0.664710 -0.950047
v -0.788709 -0.664710 -1.029013
v -0.788629 -0.289889 -1.029096
v -0.711915 -0.664710 -1.107979
v -0.711755 -0.350098 -1.108144
v -0.635122 -0.664710 -1.186945
v -0.315798 -0.007312 -1.515302
v -0.235489 0.321387 -1.597882
v -0.315637 -0.336011 -1.515467
v -0.235168 -0.007312 -1.598212
v -0.557045 0.650086 -1.267231
v -0.557366 0.321387 -1.266901
v -0.476896 0.321387 -1.349646
v -0.476736 0.650086 -1.349811
v -0.396427 0.321387 -1.432391
v -0.396427 0.321387 -1.432391
v -0.315958 0.399158 -1.515137
v -0.316119 0.650086 -1.514972
v -0.557366 0.321387 -1.266901
v -0.477057 -0.007312 -1.349481
v -0.315798 -0.007312 -1.515302
v -0.557686 -0.007312 -1.266571
v -0.477217 -0.336011 -1.349316
v -0.477217 -0.336011 -1.349316
v -0.315637 -0.336011 -1.515467
v -0.477378 -0.664710 -1.349151
v -0.477217 -0.336011 -1.349316
v -0.477378 -0.664710 -1.349151
v -0.396427 -0.664710 -1.432391
v -0.315477 -0.664710 -1.515632
v -0.315637 -0.336011 -1.515467
v -0.315292 -1.027704 -1.515822
v -0.315139 -1.326189 -1.515979
v -0.233547 -1.624673 -1.599879
v -0.558698 -1.027704 -1.265530
v -0.396427 -1.027704 -1.432391
v -0.315292 -1.027704 -1.515822
v -0.315444 -0.729220 -1.515665
v -0.558698 -1.027704 -1.265530
v -0.477563 -1.027704 -1.348961
v -0.396427 -1.326189 -1.432391
v -0.315139 -1.326189 -1.515979
v -0.315292 -1.027704 -1.515822
v -0.559003 -1.326189 -1.265217
v -0.559307 -1.624673 -1.264904
v -0.477867 -1.624673 -1.348648
v -0.477715 -1.326189 -1.348804
v -0.477867 -1.624673 -1.348648
v -0.396427 -1.624673 -1.432391
v -0.396427 -1.624673 -1.432391
v -0.314987 -1.624673 -1.516135
v -0.315139 -1.326189 -1.515979
v -0.478019 -1.923158 -1.348491
v -0.314835 -1.923158 -1.516292
v -0.635171 -0.729220 -1.186894
v -0.635399 -1.027704 -1.186659
v -0.558698 -1.027704 -1.265530
v -0.865502 -0.729220 -0.950047
v -0.788725 -0.729220 -1.028996
v -0.788801 -1.027704 -1.028918
v -0.712100 -1.027704 -1.107789
v -0.711948 -0.729220 -1.107945
v -0.712100 -1.027704 -1.107789
v -0.635399 -1.027704 -1.186659
v -0.788801 -1.027704 -1.028918
v -0.788877 -1.106048 -1.028840
v -0.712253 -1.326189 -1.107632
v -0.712100 -1.027704 -1.107789
v -0.712253 -1.326189 -1.107632
v -0.635628 -1.326189 -1.186424
v -0.788954 -1.514488 -1.028761
v -0.712405 -1.807321 -1.107476
v -0.865502 -1.624673 -0.950047
v -0.865502 -1.923158 -0.950047
v -0.789030 -1.923158 -1.028683
v -0.788954 -1.514488 -1.028761
v -0.789030 -1.923158 -1.028683
v -0.712557 -1.923158 -1.107319
v 0.072648 -1.326189 -1.914736
v -0.004053 -1.027704 -1.835865
v -0.156999 -1.624673 -1.678593
v -0.157227 -1.326189 -1.678358
v -0.080450 -1.624673 -1.757307
v -0.080602 -1.326189 -1.757151
v -0.003977 -1.326189 -1.835943
v -0.233243 -1.923158 -1.600192
v -0.156770 -1.923158 -1.678828
v -0.156998 -1.624673 -1.678593
v -0.080297 -1.923158 -1.757464
v -0.080450 -1.624673 -1.757307
v -0.763133 -0.731041 -1.055313
v -0.849849 -0.731041 -0.934824
v -0.865502 -0.731041 -0.950047
v -0.660764 -0.731041 -1.160578
v -0.747479 -0.731041 -1.040090
v -0.763133 -0.731041 -1.055313
v -0.660720 -0.666531 -1.160623
v -0.558328 -0.666531 -1.265911
v -0.763111 -0.666531 -1.055335
v -0.645066 -0.666531 -1.145400
v -0.660720 -0.666531 -1.160623
v -0.849849 -0.666531 -0.934824
v -0.747479 -0.731041 -1.040090
v -0.747458 -0.666531 -1.040112
v -0.747458 -0.666531 -1.040112
v -0.477411 -0.731041 -1.349117
v -0.542741 -0.731041 -1.250620
v -0.558394 -0.731041 -1.265843
v -0.396427 -0.731041 -1.432391
v -0.461757 -0.731041 -1.333894
v -0.477411 -0.731041 -1.349117
v -0.315444 -0.731041 -1.515666
v -0.380774 -0.731041 -1.417168
v -0.396427 -0.731041 -1.432391
v -0.542675 -0.666531 -1.250688
v -0.461757 -0.731041 -1.333894
v -0.461724 -0.666531 -1.333928
v -0.380774 -0.731041 -1.417168
v -0.380774 -0.666531 -1.417168
v -0.299823 -0.666531 -1.500409
v -0.315477 -0.666531 -1.515632
v -0.218873 -0.666531 -1.583649
v -0.396427 -0.666531 -1.432391
v -0.315477 -0.666531 -1.515632
v -0.477378 -0.666531 -1.349151
v -0.396427 -0.666531 -1.432391
v -0.218807 -0.731041 -1.583717
v -0.142030 -0.731041 -1.662666
v -0.065286 -0.666531 -1.741581
v -0.142079 -0.666531 -1.662615
v -0.065253 -0.731041 -1.741615
v 0.011508 -0.666531 -1.820547
v -0.065286 -0.666531 -1.741581
v -0.004146 -0.666531 -1.835770
v 0.072648 -0.666531 -1.914735
v -0.080939 -0.666531 -1.756804
v -0.004146 -0.666531 -1.835770
v -0.157733 -0.666531 -1.677838
v -0.080939 -0.666531 -1.756804
v -0.157684 -0.731041 -1.677889
v -0.234461 -0.731041 -1.598940
v -0.080906 -0.731041 -1.756838
v -0.157684 -0.731041 -1.677889
v -0.004129 -0.731041 -1.835786
v -0.080906 -0.731041 -1.756838
v 0.088301 -0.731041 -1.899513
v -0.558328 -0.666531 -1.265911
v -0.542675 -0.666531 -1.250688
v -0.461724 -0.666531 -1.333928
v -0.299791 -0.731041 -1.500443
v -0.542741 -0.731041 -1.250620
v -0.865502 -0.666531 -0.950047
v -0.849849 -0.666531 -0.934824
v -0.747458 -0.666531 -1.040112
v -0.747479 -0.731041 -1.040090
v -0.645066 -0.666531 -1.145400
v -0.747458 -0.666531 -1.040112
v -0.645110 -0.731041 -1.145355
v -0.380774 -0.731041 -1.417168
v -0.299823 -0.666531 -1.500409
v -0.142030 -0.731041 -1.662666
v -0.065253 -0.731041 -1.741615
v 0.011524 -0.731041 -1.820564
v -0.004146 -0.666531 -1.835770
v 0.011508 -0.666531 -1.820547
v 0.088301 -0.666531 -1.899513
vn -0.0000 -1.0000 -0.0000
vn -0.0000 1.0000 -0.0000
vn 0.7169 -0.0000 0.6972
vt 0.751164 0.826181
vt 0.751153 0.772792
vt 0.742638 0.387419
vt 0.742638 0.443709
vt 0.742639 0.612581
vt 0.742652 0.665981
vt 0.751120 0.556313
vt 0.742638 0.556291
vt 0.742656 0.316219
vt 0.751120 0.387373
vt 0.742692 0.826181
vt 0.742679 0.772781
vt 0.751120 0.612627
vt 0.742692 0.173819
vt 0.742674 0.245019
vt 0.751135 0.316189
vt 0.868826 0.333508
vt 0.908090 0.386526
vt 0.868848 0.386738
vt 0.908090 0.556737
vt 0.868848 0.613262
vt 0.868848 0.556631
vt 0.701276 0.612358
vt 0.701276 0.556179
vt 0.701300 0.334186
vt 0.701275 0.387642
vt 0.701375 0.826181
vt 0.701350 0.772725
vt 0.618692 0.772614
vt 0.577422 0.826181
vt 0.577363 0.772558
vt 0.660021 0.772669
vt 0.618740 0.826181
vt 0.660057 0.826181
vt 0.618550 0.611912
vt 0.577246 0.665312
vt 0.577187 0.611689
vt 0.618645 0.719046
vt 0.577305 0.718935
vt 0.659913 0.612135
vt 0.618597 0.665479
vt 0.659949 0.665646
vt 0.659985 0.719158
vt 0.701300 0.665814
vt 0.701325 0.719269
vt 0.742665 0.719381
vt 0.577246 0.334688
vt 0.618550 0.388088
vt 0.577187 0.388311
vt 0.618597 0.334521
vt 0.659913 0.387865
vt 0.659949 0.334354
vt 0.577422 0.173819
vt 0.618692 0.227386
vt 0.577363 0.227442
vt 0.618740 0.173819
vt 0.660021 0.227331
vt 0.659985 0.280842
vt 0.618645 0.280954
vt 0.660057 0.173819
vt 0.701350 0.227275
vt 0.701325 0.280731
vt 0.701375 0.173819
vt 0.742679 0.227219
vt 0.742665 0.280619
vt 0.742652 0.334019
vt 0.618550 0.555956
vt 0.577187 0.555844
vt 0.659913 0.556067
vt 0.618550 0.444044
vt 0.577187 0.444156
vt 0.659913 0.443933
vt 0.659913 0.500000
vt 0.618550 0.500000
vt 0.701276 0.443821
vt 0.701276 0.500000
vt 0.742638 0.500000
vt 0.790362 0.556419
vt 0.829605 0.556525
vt 0.790362 0.612839
vt 0.829605 0.613050
vt 0.790362 0.443581
vt 0.751120 0.443687
vt 0.790362 0.500000
vt 0.751120 0.500000
vt 0.790362 0.387161
vt 0.829605 0.443475
vt 0.829605 0.500000
vt 0.829605 0.386950
vt 0.868848 0.443369
vt 0.868848 0.500000
vt 0.908090 0.443263
vt 0.908090 0.500000
vt 0.751131 0.333985
vt 0.790363 0.333826
vt 0.829595 0.333667
vt 0.751164 0.173819
vt 0.790363 0.227155
vt 0.751153 0.227208
vt 0.790363 0.280490
vt 0.751142 0.280596
vt 0.790364 0.173819
vt 0.829574 0.227102
vt 0.829584 0.280384
vt 0.829563 0.173819
vt 0.868784 0.227049
vt 0.868805 0.280279
vt 0.868763 0.173819
vt 0.907994 0.226996
vt 0.908026 0.280173
vt 0.908058 0.333350
vt 0.790363 0.772845
vt 0.829574 0.772898
vt 0.790364 0.826181
vt 0.868784 0.772951
vt 0.829563 0.826181
vt 0.751131 0.666015
vt 0.790363 0.666174
vt 0.751142 0.719404
vt 0.790363 0.719510
vt 0.829595 0.666333
vt 0.829584 0.719615
vt 0.868826 0.666492
vt 0.868805 0.719721
vt 0.908090 0.613474
vt 0.908058 0.666650
vt 0.908026 0.719827
vt 0.577304 0.281065
vt 0.907962 0.173819
vt 0.751149 0.245004
s 0
usemtl glass
f 26/17/3 27/18/3 28/19/3
f 29/20/3 30/21/3 31/22/3
f 32/8/3 33/23/3 34/24/3
f 35/25/3 36/3/3 37/26/3
f 38/12/3 39/27/3 40/28/3
f 41/29/3 42/30/3 43/31/3
f 44/32/3 45/33/3 46/29/3
f 47/28/3 48/34/3 49/32/3
f 50/35/3 51/36/3 52/37/3
f 53/38/3 54/31/3 55/39/3
f 56/40/3 57/41/3 58/35/3
f 59/42/3 60/38/3 61/41/3
f 62/43/3 63/29/3 53/38/3
f 64/23/3 65/42/3 66/40/3
f 67/44/3 68/43/3 69/42/3
f 70/45/3 49/32/3 68/43/3
f 71/5/3 72/44/3 73/23/3
f 74/6/3 75/45/3 76/44/3
f 77/46/3 78/28/3 75/45/3
f 79/47/3 80/48/3 81/49/3
f 82/50/3 83/51/3 84/48/3
f 85/52/3 86/26/3 87/51/3
f 88/53/3 89/54/3 90/55/3
f 91/56/3 92/57/3 93/54/3
f 93/54/3 94/58/3 95/59/3
f 96/59/3 97/52/3 98/50/3
f 99/60/3 100/61/3 101/57/3
f 101/57/3 102/62/3 103/58/3
f 104/58/3 105/25/3 85/52/3
f 106/63/3 107/64/3 108/61/3
f 108/61/3 109/65/3 110/62/3
f 111/62/3 112/66/3 113/25/3
f 114/67/3 52/37/3 115/68/3
f 116/69/3 58/35/3 117/67/3
f 118/24/3 66/40/3 119/69/3
f 81/49/3 120/70/3 121/71/3
f 122/48/3 123/72/3 124/70/3
f 124/70/3 125/73/3 126/74/3
f 127/73/3 128/67/3 129/74/3
f 130/51/3 131/75/3 132/72/3
f 133/72/3 134/76/3 135/73/3
f 136/76/3 137/69/3 138/73/3
f 139/26/3 140/4/3 141/75/3
f 142/75/3 143/77/3 144/76/3
f 145/77/3 34/24/3 146/76/3
f 147/78/3 148/13/3 149/7/3
f 150/79/3 151/80/3 152/78/3
f 153/22/3 154/81/3 155/79/3
f 156/10/3 157/82/3 158/83/3
f 159/83/3 160/84/3 161/85/3
f 162/84/3 149/7/3 163/85/3
f 164/86/3 165/87/3 166/82/3
f 167/82/3 168/88/3 169/84/3
f 168/88/3 152/78/3 169/84/3
f 170/89/3 171/90/3 172/87/3
f 173/87/3 174/91/3 175/88/3
f 174/91/3 176/79/3 175/88/3
f 28/19/3 177/92/3 178/90/3
f 179/90/3 180/93/3 181/91/3
f 182/93/3 183/22/3 184/91/3
f 185/94/3 186/86/3 187/10/3
f 188/95/3 189/89/3 190/86/3
f 191/96/3 192/19/3 193/89/3
f 194/97/3 195/98/3 196/99/3
f 197/99/3 198/100/3 199/101/3
f 200/101/3 201/95/3 185/94/3
f 202/102/3 203/103/3 204/98/3
f 205/98/3 206/104/3 207/100/3
f 208/100/3 209/96/3 188/95/3
f 210/105/3 211/106/3 212/103/3
f 213/103/3 214/107/3 215/104/3
f 216/104/3 217/17/3 191/96/3
f 218/108/3 219/109/3 220/106/3
f 221/106/3 222/110/3 223/107/3
f 224/107/3 225/111/3 226/17/3
f 227/112/3 228/1/3 229/2/3
f 230/113/3 231/114/3 232/112/3
f 233/115/3 234/116/3 235/113/3
f 236/80/3 237/117/3 238/13/3
f 239/118/3 240/119/3 237/117/3
f 241/120/3 242/2/3 240/119/3
f 243/81/3 244/118/3 245/80/3
f 246/121/3 247/120/3 244/118/3
f 248/122/3 232/112/3 247/120/3
f 249/21/3 250/121/3 251/81/3
f 252/123/3 253/122/3 250/121/3
f 254/124/3 235/113/3 253/122/3
f 255/125/3 256/123/3 30/21/3
f 257/126/3 258/124/3 259/123/3
f 260/127/3 261/115/3 262/124/3
f 226/17/3 225/111/3 263/18/3
f 29/20/3 255/125/3 30/21/3
f 264/8/3 265/5/3 266/23/3
f 267/25/3 268/66/3 269/3/3
f 270/12/3 271/11/3 272/27/3
f 41/29/3 273/33/3 42/30/3
f 58/35/3 57/41/3 274/36/3
f 275/41/3 53/38/3 55/39/3
f 276/38/3 46/29/3 277/31/3
f 278/40/3 279/42/3 280/41/3
f 59/42/3 281/43/3 60/38/3
f 281/43/3 282/32/3 283/29/3
f 284/23/3 67/44/3 69/42/3
f 67/44/3 70/45/3 68/43/3
f 70/45/3 47/28/3 49/32/3
f 285/5/3 74/6/3 76/44/3
f 74/6/3 77/46/3 75/45/3
f 286/46/3 287/12/3 288/28/3
f 289/47/3 82/50/3 84/48/3
f 290/50/3 291/52/3 292/51/3
f 293/52/3 294/25/3 295/26/3
f 296/53/3 91/56/3 93/54/3
f 297/55/3 298/54/3 299/59/3
f 300/128/3 299/59/3 301/50/3
f 302/54/3 303/57/3 304/58/3
f 305/59/3 304/58/3 306/52/3
f 307/57/3 108/61/3 110/62/3
f 308/58/3 111/62/3 113/25/3
f 309/63/3 310/14/3 311/64/3
f 312/61/3 311/64/3 313/65/3
f 314/62/3 313/65/3 315/66/3
f 114/67/3 50/35/3 52/37/3
f 316/69/3 278/40/3 317/35/3
f 318/24/3 73/23/3 319/40/3
f 320/49/3 321/48/3 322/70/3
f 323/71/3 322/70/3 324/74/3
f 325/74/3 326/67/3 327/68/3
f 328/48/3 292/51/3 329/72/3
f 124/70/3 123/72/3 125/73/3
f 127/73/3 330/69/3 128/67/3
f 331/51/3 295/26/3 332/75/3
f 133/72/3 333/75/3 134/76/3
f 136/76/3 334/24/3 137/69/3
f 37/26/3 36/3/3 335/4/3
f 336/75/3 337/4/3 338/77/3
f 143/77/3 339/8/3 340/24/3
f 341/78/3 236/80/3 238/13/3
f 342/79/3 243/81/3 245/80/3
f 153/22/3 343/21/3 154/81/3
f 156/10/3 344/86/3 157/82/3
f 158/83/3 157/82/3 345/84/3
f 160/84/3 346/78/3 347/7/3
f 348/86/3 170/89/3 172/87/3
f 349/82/3 172/87/3 350/88/3
f 350/88/3 351/79/3 352/78/3
f 353/89/3 354/19/3 355/90/3
f 356/87/3 357/90/3 358/91/3
f 359/91/3 360/22/3 361/79/3
f 28/19/3 27/18/3 177/92/3
f 179/90/3 362/92/3 180/93/3
f 182/93/3 363/20/3 183/22/3
f 364/94/3 365/95/3 366/86/3
f 188/95/3 209/96/3 189/89/3
f 191/96/3 217/17/3 192/19/3
f 367/97/3 202/102/3 204/98/3
f 368/99/3 369/98/3 370/100/3
f 371/101/3 372/100/3 373/95/3
f 374/98/3 375/103/3 376/104/3
f 377/100/3 378/104/3 379/96/3
f 213/103/3 380/106/3 214/107/3
f 216/104/3 381/107/3 217/17/3
f 382/108/3 383/129/3 384/109/3
f 385/106/3 386/109/3 387/110/3
f 230/113/3 388/116/3 231/114/3
f 236/80/3 239/118/3 237/117/3
f 239/118/3 241/120/3 240/119/3
f 241/120/3 389/112/3 242/2/3
f 243/81/3 246/121/3 244/118/3
f 246/121/3 248/122/3 247/120/3
f 248/122/3 230/113/3 232/112/3
f 343/21/3 390/123/3 391/121/3
f 390/123/3 392/124/3 393/122/3
f 262/124/3 261/115/3 394/113/3
f 395/125/3 396/126/3 397/123/3
f 396/126/3 398/127/3 399/124/3
usemtl ledge
f 1/1/1 2/2/1 3/2/1
f 4/3/2 5/4/2 6/4/2
f 7/5/2 8/6/2 9/6/2
f 10/7/3 11/5/3 12/8/3
f 13/9/3 14/10/3 15/3/3
f 2/2/3 16/11/3 17/12/3
f 18/13/1 10/7/1 19/7/1
f 20/14/2 21/15/2 22/15/2
f 23/10/1 24/16/1 25/16/1
f 400/130/1 401/97/1 402/97/1
f 403/16/1 404/130/1 405/130/1
f 406/9/2 15/3/2 407/3/2
f 408/15/2 409/9/2 410/9/2
f 411/14/3 412/130/3 413/15/3
f 414/15/3 24/16/3 409/9/3
f 415/83/1 416/10/1 417/10/1
f 418/85/1 419/83/1 420/83/1
f 421/7/1 422/85/1 423/85/1
f 424/3/3 425/83/3 5/4/3
f 426/4/3 427/85/3 428/77/3
f 427/85/3 429/8/3 428/77/3
f 430/8/2 431/5/2 7/5/2
f 432/77/2 12/8/2 433/8/2
f 434/4/2 428/77/2 435/77/2
f 436/13/3 8/6/3 431/5/3
f 437/117/3 438/46/3 439/6/3
f 440/119/3 441/12/3 442/46/3
f 443/12/2 16/11/2 444/11/2
f 445/46/2 441/12/2 446/12/2
f 447/6/2 438/46/2 448/46/2
f 449/117/1 436/13/1 450/13/1
f 451/119/1 437/117/1 452/117/1
f 453/2/1 440/119/1 454/119/1
f 1/1/1 455/1/1 2/2/1
f 456/3/2 457/3/2 458/4/2
f 7/5/2 431/5/2 8/6/2
f 459/7/3 436/13/3 431/5/3
f 409/9/3 24/16/3 460/10/3
f 2/2/3 455/1/3 16/11/3
f 450/13/1 436/13/1 459/7/1
f 461/14/2 462/14/2 463/15/2
f 23/10/1 460/10/1 24/16/1
f 400/130/1 412/130/1 401/97/1
f 25/16/1 24/16/1 464/130/1
f 406/9/2 13/9/2 15/3/2
f 22/15/2 21/15/2 465/9/2
f 411/14/3 401/97/3 412/130/3
f 466/15/3 404/130/3 467/16/3
f 415/83/1 425/83/1 416/10/1
f 418/85/1 427/85/1 419/83/1
f 19/7/1 10/7/1 468/85/1
f 424/3/3 416/10/3 425/83/3
f 426/4/3 419/83/3 427/85/3
f 468/85/3 10/7/3 12/8/3
f 430/8/2 469/8/2 431/5/2
f 435/77/2 428/77/2 429/8/2
f 434/4/2 426/4/2 428/77/2
f 436/13/3 470/117/3 8/6/3
f 437/117/3 471/119/3 438/46/3
f 440/119/3 472/2/3 441/12/3
f 473/12/2 474/12/2 475/11/2
f 445/46/2 442/46/2 441/12/2
f 447/6/2 439/6/2 438/46/2
f 449/117/1 470/117/1 436/13/1
f 451/119/1 471/119/1 437/117/1
f 453/2/1 472/2/1 440/119/1
