# Blender 3.6.15
# www.blender.org
o headphones
v 1.013301 1.233890 -0.730051
v 1.146732 1.228071 -0.681645
v 0.878553 0.601647 -0.365026
v 1.146732 0.644108 -0.344495
v 0.878553 0.601647 0.365026
v 1.146732 0.644108 0.329807
v 1.013301 1.233890 0.730052
v 1.146732 1.228071 0.666958
v 0.878553 1.866133 0.365026
v 1.146732 1.812033 0.329807
v 0.842457 1.866133 -0.365026
v 1.146732 1.812033 -0.344495
v 1.271171 1.233890 0.000000
v 0.952257 1.775597 0.163507
v 0.867779 2.104263 0.163507
v 0.952257 1.775597 -0.163507
v 0.867779 2.104263 -0.163507
v 1.054995 1.775597 0.163507
v 0.964638 2.134467 0.163507
v 1.054995 1.775597 -0.163507
v 0.964638 2.134467 -0.163507
v 0.535191 2.326186 0.163507
v 0.535191 2.326186 -0.163507
v 0.553357 2.426327 0.163507
v 0.553357 2.426327 -0.163507
v 0.000000 2.424253 0.163507
v 0.000000 2.424253 -0.163507
v 0.000000 2.524394 0.163507
v 0.000000 2.524394 -0.163507
v -1.013301 1.233890 -0.730051
v -1.146732 1.228071 -0.681645
v -0.878553 0.601647 -0.365026
v -1.146732 0.644108 -0.344495
v -0.878553 0.601647 0.365026
v -1.146732 0.644108 0.329807
v -1.013301 1.233890 0.730052
v -1.146732 1.228071 0.666958
v -0.878553 1.866133 0.365026
v -1.146732 1.812033 0.329807
v -0.842457 1.866133 -0.365026
v -1.146732 1.812033 -0.344495
v -1.271171 1.233890 0.000000
v -0.952257 1.775597 0.163507
v -0.867779 2.104263 0.163507
v -0.952257 1.775597 -0.163507
v -0.867779 2.104263 -0.163507
v -1.054995 1.775597 0.163507
v -0.964638 2.134467 0.163507
v -1.054995 1.775597 -0.163507
v -0.964638 2.134467 -0.163507
v -0.535191 2.326186 0.163507
v -0.535191 2.326186 -0.163507
v -0.553357 2.426327 0.163507
v -0.553357 2.426327 -0.163507
vn 0.2279 0.0237 -0.9734
vn 0.6404 -0.0070 -0.7680
vn 0.6347 -0.6717 -0.3822
vn 0.1967 -0.8735 -0.4454
vn 0.6468 -0.6697 0.3648
vn 0.2285 -0.8629 0.4508
vn 0.6700 -0.0086 0.7423
vn 0.3037 0.0120 0.9527
vn 0.6589 0.6599 0.3610
vn 0.2586 0.8656 0.4287
vn 0.6427 0.6641 -0.3820
vn 0.2193 0.8722 -0.4372
vn 1.0000 0.0019 0.0023
vn -0.0000 -0.0000 -1.0000
vn 0.9697 0.2442 -0.0000
vn -0.0000 -0.0000 1.0000
vn 0.5787 0.8155 -0.0000
vn 0.1745 0.9847 -0.0000
vn -0.2279 0.0237 -0.9734
vn -0.1967 -0.8735 -0.4454
vn -0.6347 -0.6717 -0.3822
vn -0.6404 -0.0070 -0.7680
vn -0.2285 -0.8629 0.4508
vn -0.6468 -0.6697 0.3648
vn -0.3037 0.0120 0.9527
vn -0.6700 -0.0086 0.7423
vn -0.2586 0.8656 0.4287
vn -0.6589 0.6599 0.3610
vn -0.2193 0.8722 -0.4372
vn -0.6427 0.6641 -0.3820
vn -1.0000 0.0019 0.0023
vn -0.9697 0.2442 -0.0000
vn -0.5787 0.8155 -0.0000
vn -0.1745 0.9847 -0.0000
vt 0.983281 0.848324
vt 0.983281 0.941493
vt 0.907235 0.941493
vt 0.907235 0.848324
vt 0.831188 0.941493
vt 0.831188 0.848324
vt 0.755142 0.941493
vt 0.755142 0.848324
vt 0.679095 0.941493
vt 0.679095 0.848324
vt 0.603048 0.941493
vt 0.603048 0.848324
vt 0.527002 0.941493
vt 0.527002 0.848324
vt 0.679786 0.644869
vt 0.734540 0.739704
vt 0.625033 0.739704
vt 0.679786 0.834541
vt 0.570279 0.834541
vt 0.515526 0.739704
vt 0.570279 0.644869
vt 0.874801 0.528963
vt 0.874801 0.590777
vt 0.857359 0.584140
vt 0.857359 0.520967
vt 0.797638 0.587655
vt 0.797638 0.520521
vt 0.779522 0.594502
vt 0.779522 0.529312
vt 0.857359 0.669495
vt 0.797638 0.672051
vt 0.874801 0.664531
vt 0.779522 0.667403
vt 0.857359 0.769417
vt 0.797638 0.769256
vt 0.779522 0.764883
vt 0.874801 0.764594
s 1
f 1/1/1 2/2/2 4/3/3 3/4/4
f 3/4/4 4/3/3 6/5/5 5/6/6
f 5/6/6 6/5/5 8/7/7 7/8/8
f 7/8/8 8/7/7 10/9/9 9/10/10
f 9/10/10 10/9/9 12/11/11 11/12/12
f 11/12/12 12/11/11 2/13/2 1/14/1
f 4/15/3 2/16/2 13/17/13
f 2/16/2 12/18/11 13/17/13
f 12/18/11 10/19/9 13/17/13
f 10/19/9 8/20/7 13/17/13
f 8/20/7 6/21/5 13/17/13
f 6/21/5 4/15/3 13/17/13
s 0
f 16/22/14 17/23/14 21/24/14 20/25/14
f 20/25/15 21/24/15 19/26/15 18/27/15
f 18/27/16 19/26/16 15/28/16 14/29/16
f 19/26/17 21/24/17 25/30/17 24/31/17
f 21/24/14 17/23/14 23/32/14 25/30/14
f 15/28/16 19/26/16 24/31/16 22/33/16
f 24/31/18 25/30/18 29/34/18 28/35/18
f 22/33/16 24/31/16 28/35/16 26/36/16
f 25/30/14 23/32/14 27/37/14 29/34/14
s 1
f 30/1/19 32/4/20 33/3/21 31/2/22
f 32/4/20 34/6/23 35/5/24 33/3/21
f 34/6/23 36/8/25 37/7/26 35/5/24
f 36/8/25 38/10/27 39/9/28 37/7/26
f 38/10/27 40/12/29 41/11/30 39/9/28
f 40/12/29 30/14/19 31/13/22 41/11/30
f 33/15/21 42/17/31 31/16/22
f 31/16/22 42/17/31 41/18/30
f 41/18/30 42/17/31 39/19/28
f 39/19/28 42/17/31 37/20/26
f 37/20/26 42/17/31 35/21/24
f 35/21/24 42/17/31 33/15/21
s 0
f 45/22/14 49/25/14 50/24/14 46/23/14
f 49/25/32 47/27/32 48/26/32 50/24/32
f 47/27/16 43/29/16 44/28/16 48/26/16
f 48/26/33 53/31/33 54/30/33 50/24/33
f 50/24/14 54/30/14 52/32/14 46/23/14
f 44/28/16 51/33/16 53/31/16 48/26/16
f 53/31/34 28/35/34 29/34/34 54/30/34
f 51/33/16 26/36/16 28/35/16 53/31/16
f 54/30/14 29/34/14 27/37/14 52/32/14
