# Blender 3.6.15
# www.blender.org
o building3
v -24.837803 0.012444 24.837803
v -24.837803 52.768925 24.837803
v -24.837803 0.012444 -24.837803
v -24.837803 52.768925 -24.837803
v 24.837803 0.012444 24.837803
v 24.837803 52.768925 24.837803
v 24.837803 0.012444 -24.837803
v 24.837803 52.768925 -24.837803
v 24.837803 34.633327 -24.837803
v 24.837803 34.633327 24.837803
v 55.871265 34.633327 -24.837803
v 55.871265 0.012444 -24.837803
v 55.871265 0.012444 24.837803
v 55.871265 34.633327 24.837803
vn -1.0000 -0.0000 -0.0000
vn -0.0000 -0.0000 -1.0000
vn 1.0000 -0.0000 -0.0000
vn -0.0000 -0.0000 1.0000
vn -0.0000 1.0000 -0.0000
vt 0.079733 0.998234
vt 0.079733 0.614578
vt 0.440984 0.614578
vt 0.440984 0.998234
vt 0.016741 0.012019
vt 0.400397 0.012019
vt 0.268511 0.373271
vt 0.016740 0.373271
vt 0.780569 0.604812
vt 0.912455 0.604812
vt 0.912455 0.966064
vt 0.780569 0.966064
vt 0.016740 0.373271
vt 0.268511 0.373271
vt 0.400397 0.012019
vt 0.016741 0.012019
vt 0.735244 0.045216
vt 0.735244 0.406467
vt 0.509562 0.406467
vt 0.509562 0.045216
vt 0.803029 0.045216
vt 0.803029 0.406467
vt 0.441778 0.406467
vt 0.441778 0.045216
vt 0.528798 0.604812
vt 0.780569 0.604812
vt 0.780569 0.966064
vt 0.528798 0.966064
vt 0.268511 0.598953
vt 0.016740 0.598953
vt 0.016740 0.598953
vt 0.268511 0.598953
vt 0.400397 0.373271
s 0
f 1/1/1 2/2/1 4/3/1 3/4/1
f 3/5/2 4/6/2 9/7/2 7/8/2
f 9/9/3 8/10/3 6/11/3 10/12/3
f 5/13/4 10/14/4 2/15/4 1/16/4
f 9/17/5 10/18/5 14/19/5 11/20/5
f 8/21/5 4/22/5 2/23/5 6/24/5
f 12/25/3 11/26/3 14/27/3 13/28/3
f 7/8/2 9/7/2 11/29/2 12/30/2
f 10/14/4 5/13/4 13/31/4 14/32/4
f 2/15/4 10/14/4 6/33/4
f 9/7/2 4/6/2 8/33/2
