# Blender 3.6.15
# www.blender.org
o Plane
v 9.211574 17.292852 22.833471
v 9.211574 18.064943 18.255665
v 9.211574 15.261039 24.743378
v 11.173231 15.261039 18.255665
v 11.173231 15.261039 22.840511
v -9.211574 17.292852 22.833471
v -9.211574 18.064943 18.255665
v -9.211574 15.261039 24.743378
v -11.173231 15.261039 18.255665
v -11.173231 15.261039 22.840511
v -18.409164 -0.119595 18.409164
v -18.409164 81.715607 18.409164
v -18.409164 -0.119595 -18.409164
v -18.409164 81.715607 -18.409164
v 18.409164 -0.119595 18.409164
v 18.409164 81.715607 18.409164
v 18.409164 -0.119595 -18.409164
v 18.409164 81.715607 -18.409164
v 8.192281 -0.803760 21.434881
v 7.326256 16.360527 21.934881
v 9.058306 -0.803760 22.934881
v 9.058307 16.360527 21.934883
v 7.326255 -0.803760 22.934881
v 8.192282 16.360527 23.434881
v -8.192281 -0.803760 21.434881
v -7.326256 16.360527 21.934881
v -9.058306 -0.803760 22.934881
v -9.058307 16.360527 21.934883
v -7.326255 -0.803760 22.934881
v -8.192282 16.360527 23.434881
vn -0.0000 0.9861 0.1663
vn -0.0000 0.8815 0.4721
vn 0.7306 0.6284 0.2672
vn 0.5772 0.5593 0.5950
vn 0.7260 0.6272 0.2822
vn 0.7754 0.6292 0.0530
vn -0.7306 0.6284 0.2672
vn -0.7260 0.6272 0.2822
vn -0.5772 0.5593 0.5950
vn -0.7754 0.6292 0.0530
vn -0.0000 0.6849 0.7286
vn -1.0000 -0.0000 -0.0000
vn -0.0000 -0.0000 -1.0000
vn 1.0000 -0.0000 -0.0000
vn -0.0000 -0.0000 1.0000
vn -0.0000 1.0000 -0.0000
vn -0.4754 -0.0000 -0.8798
vn -0.5242 -0.0000 -0.8516
vn 0.9996 -0.0000 -0.0282
vn 0.9996 -0.0000 0.0282
vn -0.4754 -0.0000 0.8798
vn -0.5242 -0.0000 0.8516
vn 0.4754 -0.0000 -0.8798
vn -0.9996 -0.0000 0.0282
vn -0.9996 -0.0000 -0.0282
vn 0.5242 -0.0000 -0.8516
vn 0.5242 -0.0000 0.8516
vn 0.4754 -0.0000 0.8798
vt 0.890530 0.677368
vt 0.652317 0.677368
vt 0.652317 0.618177
vt 0.890530 0.618177
vt 0.890530 0.593481
vt 0.915895 0.618086
vt 0.915895 0.677368
vt 0.626953 0.618086
vt 0.652317 0.593481
vt 0.626953 0.677368
vt 0.000122 0.749939
vt 0.555655 0.749939
vt 0.555655 0.999878
vt 0.000122 0.999878
vt 0.000122 0.000122
vt 0.555655 0.000122
vt 0.555655 0.250061
vt 0.000122 0.250061
vt 0.555655 0.500000
vt 0.000122 0.500000
vt 0.555899 0.000122
vt 0.805838 0.000122
vt 0.805838 0.250061
vt 0.555900 0.250061
vt 0.565522 0.289971
vt 0.811226 0.289971
vt 0.811226 0.314692
vt 0.565522 0.314691
vt 0.811226 0.339413
vt 0.565522 0.339411
vt 0.811226 0.364134
vt 0.565522 0.364134
vt 0.565522 0.339414
vt 0.811226 0.339413
vt 0.565522 0.314690
s 1
f 2/1/1 7/2/1 6/3/2 1/4/2
f 1/4/3 3/5/4 5/6/5
f 2/1/6 1/4/3 5/6/5 4/7/6
f 6/3/7 10/8/8 8/9/9
f 7/2/10 9/10/10 10/8/8 6/3/7
f 6/3/2 8/9/11 3/5/11 1/4/2
s 0
f 11/11/12 12/12/12 14/13/12 13/14/12
f 13/15/13 14/16/13 18/17/13 17/18/13
f 17/18/14 18/17/14 16/19/14 15/20/14
f 15/20/15 16/19/15 12/12/15 11/11/15
f 18/21/16 14/22/16 12/23/16 16/24/16
s 1
f 19/25/17 20/26/18 22/27/19 21/28/20
f 21/28/20 22/27/19 24/29/21 23/30/22
f 23/30/22 24/29/21 20/31/18 19/32/17
f 25/32/23 27/33/24 28/34/25 26/31/26
f 27/33/24 29/35/27 30/27/28 28/34/25
f 29/35/27 25/25/23 26/26/26 30/27/28
