# Blender 3.6.15
# www.blender.org
o Cube
v -19.177118 0.000000 15.620077
v -19.177118 91.046234 15.620077
v -19.177118 0.000000 -15.620077
v -19.177118 91.046234 -15.620077
v 19.177118 0.000000 15.620077
v 19.177118 91.046234 15.620077
v 19.177118 0.000000 -15.620077
v 19.177118 91.046234 -15.620077
vn -1.0000 -0.0000 -0.0000
vn -0.0000 -0.0000 -1.0000
vn 1.0000 -0.0000 -0.0000
vn -0.0000 -0.0000 1.0000
vn -0.0000 1.0000 -0.0000
vt 0.000106 0.775497
vt 0.654088 0.775497
vt 0.654088 0.999894
vt 0.000106 0.999894
vt 0.000106 0.000106
vt 0.654088 0.000106
vt 0.654088 0.275603
vt 0.000106 0.275603
vt 0.654088 0.500000
vt 0.000106 0.500000
vt 0.654299 0.275603
vt 0.654299 0.000106
vt 0.878696 0.000106
vt 0.878696 0.275603
s 0
f 1/1/1 2/2/1 4/3/1 3/4/1
f 3/5/2 4/6/2 8/7/2 7/8/2
f 7/8/3 8/7/3 6/9/3 5/10/3
f 5/10/4 6/9/4 2/2/4 1/1/4
f 8/11/5 4/12/5 2/13/5 6/14/5
