# Blender 3.6.15
# www.blender.org
o Cone
v 1.129373 0.410439 0.652044
v 0.284988 5.095068 -0.164538
v 1.129373 0.410439 -0.652044
v 0.000000 5.095068 -0.329075
v 0.000000 0.410439 -1.304087
v 0.284988 5.095068 0.164538
v 0.000000 0.410439 1.304087
v 0.000000 5.095068 0.329075
v -1.129373 0.410439 0.652044
v -0.284988 5.095068 0.164538
v -1.129373 0.410439 -0.652044
v -0.284988 5.095068 -0.164538
v 2.209688 0.316616 1.275764
v 2.209688 0.316616 -1.275764
v 0.000000 0.316616 -2.551528
v 0.000000 0.316616 2.551528
v -2.209688 0.316616 1.275764
v -2.209688 0.316616 -1.275764
v 2.209688 -0.026258 1.275764
v 2.209688 -0.026258 -1.275764
v 0.000000 -0.026258 -2.551528
v 0.000000 -0.026258 2.551528
v -2.209688 -0.026258 1.275764
v -2.209688 -0.026258 -1.275764
vn 0.8479 0.2038 -0.4895
vn 0.8479 0.2038 0.4895
vn -0.0000 0.2038 -0.9790
vn -0.0000 0.2038 0.9790
vn -0.8479 0.2038 0.4895
vn -0.0000 1.0000 -0.0000
vn -0.8479 0.2038 -0.4895
vn -0.0000 0.9972 0.0750
vn -0.0650 0.9972 0.0375
vn -0.7008 0.5876 0.4046
vn -0.0000 0.5876 0.8092
vn -0.7008 0.5876 -0.4046
vn -0.0000 0.5876 -0.8092
vn -0.0000 -0.0000 -1.0000
vn -0.8660 -0.0000 -0.5000
vn -0.0000 0.9972 -0.0750
vn 0.0650 0.9972 -0.0375
vn 0.7008 0.5876 -0.4046
vn -0.0650 0.9972 -0.0375
vn 0.0650 0.9972 0.0375
vn 0.7008 0.5876 0.4046
vn -0.0000 -1.0000 -0.0000
vn -0.8660 -0.0000 0.5000
vn -0.0000 -0.0000 1.0000
vn 0.8660 -0.0000 0.5000
vn 0.8660 -0.0000 -0.5000
vt 0.399637 0.031733
vt 0.323073 0.767467
vt 0.271390 0.767467
vt 0.194826 0.031733
vt 0.297231 0.031733
vt 0.297231 0.767467
vt 0.341990 0.767467
vt 0.474603 0.031733
vt 0.252473 0.767467
vt 0.119860 0.031733
vt -0.000000 0.563006
vt 0.025942 0.548029
vt 0.051883 0.563006
vt 0.051883 0.592961
vt 0.025942 0.607938
vt -0.000000 0.592961
vt 0.767578 0.372037
vt 0.865461 0.316483
vt 0.962810 0.368511
vt 0.768492 0.476737
vt 0.965426 0.141098
vt 0.764212 0.040291
vt 0.760724 -0.000000
vt 1.000000 0.116432
vt 0.765125 0.144991
vt 0.667242 0.200545
vt 0.569893 0.148518
vt 0.864986 0.200611
vt 0.667718 0.316418
vt 0.567278 0.375931
vt 0.733844 0.981544
vt 0.532704 0.865415
vt 0.532704 0.633157
vt 0.733844 0.517029
vt 0.934985 0.633157
vt 0.934985 0.865415
vt 1.000000 0.386717
vt 0.771979 0.517029
vt 0.532704 0.400597
vt 0.532704 0.130311
s 1
f 3/1/1 2/2/1 6/3/2 1/4/2
f 5/5/3 4/6/3 2/7/1 3/8/1
f 1/8/2 6/7/2 8/6/4 7/5/4
f 7/5/4 8/6/4 10/9/5 9/10/5
f 2/11/6 4/12/6 12/13/6 10/14/6 8/15/6 6/16/6
f 9/4/5 10/3/5 12/2/7 11/1/7
f 11/10/7 12/9/7 4/6/3 5/5/3
f 7/17/8 9/18/9 17/19/10 16/20/11
f 18/21/12 15/22/13 21/23/14 24/24/15
f 5/25/16 3/26/17 14/27/18 15/22/13
f 9/18/9 11/28/19 18/21/12 17/19/10
f 1/29/20 7/17/8 16/20/11 13/30/21
f 11/28/19 5/25/16 15/22/13 18/21/12
f 3/26/17 1/29/20 13/30/21 14/27/18
f 20/31/22 19/32/22 22/33/22 23/34/22 24/35/22 21/36/22
f 16/20/11 17/19/10 23/37/23 22/38/24
f 14/27/18 13/30/21 19/39/25 20/40/26
f 17/19/10 18/21/12 24/24/15 23/37/23
f 13/30/21 16/20/11 22/38/24 19/39/25
f 15/22/13 14/27/18 20/40/26 21/23/14
