# Blender 3.6.15
# www.blender.org
o Cube
v -23.287127 0.095694 11.813502
v -23.287127 18.112005 11.813502
v -23.287127 0.095694 -8.227134
v -23.287127 18.112005 -8.227134
v 22.421896 0.095694 11.813502
v 22.421896 18.112005 11.813502
v 22.421896 0.095694 -8.227134
v 22.421896 18.112005 -8.227134
v 3.033893 0.095694 11.813502
v 3.033893 18.112005 11.813502
v 22.421896 18.112005 17.471577
v 22.421896 0.095694 17.471577
v 3.033893 0.095694 17.471577
v 3.033893 18.112005 17.471577
v 22.421896 27.730646 1.793184
v -23.287127 27.730646 1.793184
v 22.790258 0.677930 -8.582877
v 22.790258 -45.282467 -8.582877
v 22.790258 0.677930 18.015957
v 22.790258 -45.282467 18.015957
v -23.734999 0.677930 -8.582877
v -23.734999 -45.282467 -8.582877
v -23.734999 0.677930 18.015957
v -23.734999 -45.282467 18.015957
v 12.637937 27.730646 1.793184
v 12.637937 27.730646 17.471577
vn -1.0000 -0.0000 -0.0000
vn 1.0000 -0.0000 -0.0000
vn -0.0000 -0.0000 1.0000
vn -0.0000 -0.0000 -1.0000
vn -0.0000 1.0000 -0.0000
vn 0.7011 0.7131 -0.0000
vn -0.7076 0.7066 -0.0000
vn -0.0000 0.7214 -0.6925
vn -0.0000 0.7214 0.6925
vt 0.210746 0.716491
vt 0.210746 0.888709
vt 0.019178 0.888709
vt 0.019178 0.716491
vt 0.956306 0.717994
vt 0.956306 0.890212
vt 0.764737 0.890212
vt 0.764737 0.717994
vt 0.462349 0.716491
vt 0.462349 0.888709
vt 0.114962 0.980653
vt 0.710652 0.890212
vt 0.710651 0.717994
vt 0.525321 0.890212
vt 0.525321 0.717994
vt 0.471236 0.890212
vt 0.471236 0.717994
vt 0.458238 0.537565
vt 0.458238 0.709783
vt 0.021305 0.709783
vt 0.021305 0.537565
vt 0.860521 0.982157
vt 0.266361 0.264200
vt 0.099191 0.264200
vt 0.099191 0.168628
vt 0.266361 0.168628
vt 0.266361 0.003487
vt 0.099191 0.003487
vt 0.361933 0.003487
vt 0.361933 0.168628
vt 0.529103 0.003488
vt 0.529103 0.168628
vt 0.003619 0.168628
vt 0.003619 0.003487
vt 0.476346 0.423356
vt 0.476346 0.375876
vt 0.591481 0.291789
vt 0.591481 0.423356
vt 0.617127 0.982157
vt 0.705544 0.375876
vt 0.705544 0.423356
vt 0.481087 0.547434
vt 0.481087 0.430876
vt 0.563190 0.547434
vt 0.481087 0.663991
vt 0.643784 0.663991
vt 0.864660 0.547434
vt 0.864660 0.663991
vt 0.864660 0.430876
s 0
f 1/1/1 2/2/1 4/3/1 3/4/1
f 7/5/2 8/6/2 6/7/2 5/8/2
f 9/9/3 10/10/3 2/2/3 1/1/3
f 4/3/1 2/2/1 16/11/1
f 5/8/2 6/7/2 11/12/2 12/13/2
f 12/13/3 11/12/3 14/14/3 13/15/3
f 10/16/1 9/17/1 13/15/1 14/14/1
f 3/18/4 4/19/4 8/20/4 7/21/4
f 6/7/2 8/6/2 15/22/2
f 17/23/5 21/24/5 23/25/5 19/26/5
f 20/27/3 19/26/3 23/25/3 24/28/3
f 18/29/2 17/30/2 19/26/2 20/27/2
f 22/31/4 21/32/4 17/30/4 18/29/4
f 24/28/1 23/25/1 21/33/1 22/34/1
f 11/35/6 6/36/6 25/37/6 26/38/6
f 14/14/3 11/12/3 26/39/3
f 10/40/7 14/41/7 26/38/7 25/37/7
f 15/42/8 8/43/8 25/44/8
f 15/42/9 25/44/9 6/45/9
f 10/46/9 25/44/9 16/47/9 2/48/9
f 25/44/8 8/43/8 4/49/8 16/47/8
