# Blender 3.6.15
# www.blender.org
o house_duplex
v 28.343475 0.095694 11.813502
v 28.343475 18.112005 11.813502
v 28.343475 0.095694 -8.227134
v 28.343475 18.112005 -8.227134
v 8.955471 0.095694 11.813502
v 8.955471 18.112005 11.813502
v 28.343475 18.112005 17.471577
v 28.343475 0.095694 17.471577
v 8.955471 0.095694 17.471577
v 8.955471 18.112005 17.471577
v 28.343475 27.730646 1.793184
v 28.711838 0.677930 -8.582877
v 28.711838 -45.282467 -8.582877
v 28.711838 0.677930 18.015957
v 28.711838 -45.282467 18.015957
v 18.559513 27.730646 1.793184
v 18.559513 27.730646 17.471577
v -29.621275 0.095694 11.813502
v -29.621275 18.112005 11.813502
v -29.621275 0.095694 -8.227133
v -29.621275 18.112005 -8.227133
v -10.233271 0.095694 11.813502
v -10.233271 18.112005 11.813502
v -29.621275 18.112005 17.471577
v -29.621275 0.095694 17.471577
v -10.233271 0.095694 17.471577
v -10.233271 18.112005 17.471577
v -29.621275 27.730646 1.793184
v -29.989637 0.677930 -8.582876
v -29.989637 -45.282467 -8.582876
v -29.989637 0.677930 18.015957
v -29.989637 -45.282467 18.015957
v -19.837309 27.730646 1.793184
v -19.837309 27.730646 17.471577
vn 1.0000 -0.0000 -0.0000
vn -0.0000 -0.0000 -1.0000
vn -0.0000 -0.0000 1.0000
vn -1.0000 -0.0000 -0.0000
vn -0.0000 0.7214 -0.6925
vn -0.0000 1.0000 -0.0000
vn 0.7011 0.7131 -0.0000
vn -0.7076 0.7066 -0.0000
vn -0.0000 0.7214 0.6925
vn -0.7011 0.7131 -0.0000
vn 0.7076 0.7066 -0.0000
vt 0.986267 0.499163
vt 0.986267 0.685797
vt 0.778662 0.685797
vt 0.778662 0.499163
vt 0.390279 0.301062
vt 0.990748 0.301062
vt 0.990748 0.487697
vt 0.390279 0.487697
vt 0.720049 0.685797
vt 0.720049 0.499163
vt 0.519204 0.685797
vt 0.519204 0.499163
vt 0.460591 0.685797
vt 0.460591 0.499163
vt 0.348002 0.593739
vt 0.107183 0.593739
vt 0.045819 0.506625
vt 0.409366 0.506625
vt 0.882464 0.785439
vt 0.172666 0.115129
vt 0.325158 0.115129
vt 0.325158 0.234523
vt 0.172666 0.234523
vt 0.662487 0.792384
vt 0.861267 0.792384
vt 0.861267 0.979019
vt 0.662487 0.979019
vt 0.394256 0.115129
vt 0.394256 0.234523
vt 0.172666 0.303621
vt 0.325158 0.303621
vt 0.013922 0.390006
vt 0.013922 0.354520
vt 0.099973 0.291674
vt 0.099973 0.390006
vt 0.618695 0.785439
vt 0.185223 0.354520
vt 0.185223 0.390006
vt 0.045819 0.593739
vt 0.045819 0.680854
vt 0.287767 0.680854
vt 0.167418 0.680854
vt 0.005904 0.713564
vt 0.213509 0.713564
vt 0.213509 0.900198
vt 0.005904 0.900198
vt 0.272122 0.713564
vt 0.272122 0.900198
vt 0.472966 0.713564
vt 0.472966 0.900198
vt 0.531579 0.900198
vt 0.531579 0.713564
vt 0.109706 0.999840
vt 0.103569 0.115129
vt 0.103569 0.234523
vt 0.185224 0.488339
vt 0.099172 0.488339
vt 0.099172 0.390006
vt 0.185224 0.452852
vt 0.373476 0.999840
vt 0.013922 0.452852
vt 0.013922 0.488339
vt 0.409366 0.593739
vt 0.409366 0.680854
vt 0.546748 0.115129
vt 0.546748 0.234523
s 0
f 3/1/1 4/2/1 2/3/1 1/4/1
f 3/5/2 20/6/2 21/7/2 4/8/2
f 1/4/1 2/3/1 7/9/1 8/10/1
f 8/10/3 7/9/3 10/11/3 9/12/3
f 6/13/4 5/14/4 9/12/4 10/11/4
f 33/15/5 16/16/5 4/17/5 21/18/5
f 2/3/1 4/2/1 11/19/1
f 32/20/3 15/21/3 14/22/3 31/23/3
f 22/24/3 5/25/3 6/26/3 23/27/3
f 13/28/1 12/29/1 14/22/1 15/21/1
f 29/30/6 31/23/6 14/22/6 12/31/6
f 7/32/7 2/33/7 16/34/7 17/35/7
f 10/11/3 7/9/3 17/36/3
f 6/37/8 10/38/8 17/35/8 16/34/8
f 11/39/5 4/17/5 16/16/5
f 11/39/9 16/16/9 2/40/9
f 23/41/9 6/42/9 16/16/9 33/15/9
f 20/43/4 18/44/4 19/45/4 21/46/4
f 18/44/4 25/47/4 24/48/4 19/45/4
f 25/47/3 26/49/3 27/50/3 24/48/3
f 23/51/1 27/50/1 26/49/1 22/52/1
f 19/45/4 28/53/4 21/46/4
f 30/54/4 32/20/4 31/23/4 29/55/4
f 24/56/10 34/57/10 33/58/10 19/59/10
f 27/50/3 34/60/3 24/48/3
f 23/61/11 33/58/11 34/57/11 27/62/11
f 28/63/5 33/15/5 21/18/5
f 28/63/9 19/64/9 33/15/9
f 30/65/2 29/66/2 12/29/2 13/28/2
