# Blender 3.6.15
# www.blender.org
mtllib lantern.mtl
o lantern
v -2.153125 0.890673 2.153125
v -2.153125 7.097087 2.153125
v -2.153125 0.890673 -2.153125
v -2.153125 7.097087 -2.153125
v 2.153125 0.890673 2.153125
v 2.153125 7.097087 2.153125
v 2.153125 0.890673 -2.153125
v 2.153125 7.097087 -2.153125
v -2.873912 0.016451 2.873912
v -2.873912 0.960457 2.873912
v -2.873912 0.016451 -2.873912
v -2.873912 0.960457 -2.873912
v 2.873912 0.016451 2.873912
v 2.873912 0.960457 2.873912
v 2.873912 0.016451 -2.873912
v 2.873912 0.960457 -2.873912
v -2.873912 7.971310 2.873912
v -2.873912 7.027304 2.873912
v -2.873912 7.971310 -2.873912
v -2.873912 7.027304 -2.873912
v 2.873912 7.971310 2.873912
v 2.873912 7.027304 2.873912
v 2.873912 7.971310 -2.873912
v 2.873912 7.027304 -2.873912
vn -1.0000 -0.0000 -0.0000
vn -0.0000 -0.0000 -1.0000
vn 1.0000 -0.0000 -0.0000
vn -0.0000 -0.0000 1.0000
vn -0.0000 -1.0000 -0.0000
vn -0.0000 1.0000 -0.0000
vt 0.375000 0.000000
vt 0.625000 0.000000
vt 0.625000 0.250000
vt 0.375000 0.250000
vt 0.625000 0.500000
vt 0.375000 0.500000
vt 0.625000 0.750000
vt 0.375000 0.750000
vt 0.625000 1.000000
vt 0.375000 1.000000
vt 0.199623 0.378777
vt 0.337749 0.378777
vt 0.337749 0.516903
vt 0.199623 0.516903
vt 0.337749 0.655029
vt 0.199623 0.655029
vt 0.337749 0.793155
vt 0.199623 0.793155
vt 0.337749 0.931282
vt 0.199623 0.931282
vt 0.061497 0.655029
vt 0.061497 0.793155
vt 0.475876 0.655029
vt 0.475876 0.793155
s 0
usemtl glass
f 1/1/1 2/2/1 4/3/1 3/4/1
f 3/4/2 4/3/2 8/5/2 7/6/2
f 7/6/3 8/5/3 6/7/3 5/8/3
f 5/8/4 6/7/4 2/9/4 1/10/4
usemtl metal
f 9/11/1 10/12/1 12/13/1 11/14/1
f 11/14/2 12/13/2 16/15/2 15/16/2
f 15/16/3 16/15/3 14/17/3 13/18/3
f 13/18/4 14/17/4 10/19/4 9/20/4
f 11/21/5 15/16/5 13/18/5 9/22/5
f 16/15/6 12/23/6 10/24/6 14/17/6
f 17/11/1 19/14/1 20/13/1 18/12/1
f 19/14/2 23/16/2 24/15/2 20/13/2
f 23/16/3 21/18/3 22/17/3 24/15/3
f 21/18/4 17/20/4 18/19/4 22/17/4
f 19/21/6 17/22/6 21/18/6 23/16/6
f 24/15/5 22/17/5 18/24/5 20/23/5
