# Blender 3.6.15
# www.blender.org
o pokey_rock
v 1.662991 15.959019 -1.307849
v 0.000000 19.320349 -5.529727
v 2.100700 15.959019 0.251122
v 3.910106 19.320349 -3.910108
v 1.307849 15.959019 1.662991
v 5.529727 19.320349 -0.000000
v -0.251123 15.959019 2.100700
v 3.910106 19.320349 3.910107
v -1.662991 15.959019 1.307849
v 0.000000 19.320349 5.529726
v -2.100701 15.959019 -0.251123
v -3.910106 19.320349 3.910107
v -1.307849 15.959019 -1.662991
v -5.529727 19.320349 -0.000000
v 0.251123 15.959019 -2.100701
v -3.910106 19.320349 -3.910108
v 0.510152 10.861998 -0.600120
v 0.598495 10.861998 0.359538
v -0.357850 10.861998 0.240580
v -0.750796 10.861998 -0.000000
v 0.000000 5.544962 -0.199645
v 0.124043 5.686032 0.099822
v -0.248085 5.287129 -0.000000
vn 0.5327 -0.5497 -0.6435
vn 0.0969 -0.7395 -0.6661
vn 0.5395 -0.7395 -0.4025
vn 0.8278 -0.5479 -0.1205
vn 0.6661 -0.7395 0.0969
vn 0.6372 -0.5889 0.4971
vn 0.4025 -0.7395 0.5395
vn 0.0538 -0.5747 0.8166
vn -0.0969 -0.7395 0.6661
vn -0.5171 -0.5739 0.6350
vn -0.5395 -0.7395 0.4025
vn -0.8221 -0.5526 0.1371
vn -0.6661 -0.7395 -0.0969
vn -0.6739 -0.5740 -0.4653
vn -0.8645 -0.2626 -0.4285
vn 0.5264 -0.3208 -0.7874
vn 0.4351 -0.4500 -0.7799
vn -0.4466 -0.8911 -0.0799
vn -0.4025 -0.7395 -0.5395
vn -0.1091 -0.5636 -0.8188
vn 0.6669 -0.2524 0.7011
vn -0.4356 -0.2142 0.8743
vn 0.6215 -0.3162 0.7168
vn -0.0000 1.0000 -0.0000
vt 0.414479 0.625360
vt 0.761871 0.714404
vt 0.626466 0.852545
vt 0.308388 0.667824
vt 0.449860 0.953134
vt 0.195575 0.680277
vt 0.238437 1.000000
vt 0.089116 0.661100
vt 0.002776 0.969592
vt 0.000000 0.608819
vt 0.629993 0.276855
vt 0.708442 0.000000
vt 0.847787 0.164604
vt 0.618464 0.379333
vt 0.885981 0.358900
vt 0.577107 0.475556
vt 0.309167 0.231661
vt 0.245837 0.294781
vt 0.071309 0.024442
vt 0.075069 0.002380
vt 0.851647 0.547636
vt 0.506720 0.559429
vt 0.189611 0.319938
vt 0.320967 0.206542
vt 0.130301 0.324592
vt 0.059696 0.040508
vt 0.105419 0.000000
vt 0.035534 0.039354
vt 0.035534 0.005906
vt 0.051265 0.024963
s 1
f 1/1/1 2/2/2 4/3/3 3/4/4
f 3/4/4 4/3/3 6/5/5 5/6/6
f 5/6/6 6/5/5 8/7/7 7/8/8
f 7/8/8 8/7/7 10/9/9 9/10/10
f 9/11/10 10/12/9 12/13/11 11/14/12
f 11/14/12 12/13/11 14/15/13 13/16/14
f 20/17/15 17/18/16 21/19/17 23/20/18
f 13/16/14 14/15/13 16/21/19 15/22/20
f 15/22/20 16/21/19 2/2/2 1/1/1
f 3/4/4 5/6/6 18/23/21 17/18/16
f 9/11/10 11/14/12 19/24/22
f 15/22/20 1/1/1 17/18/16
f 1/1/1 3/4/4 17/18/16
f 5/6/6 7/8/8 19/25/22 18/23/21
f 11/14/12 13/16/14 20/17/15 19/24/22
f 7/8/8 9/10/10 19/25/22
f 13/16/14 15/22/20 17/18/16 20/17/15
f 18/23/21 19/25/22 22/26/23
f 19/24/22 20/17/15 23/20/18 22/27/23
f 17/18/16 18/23/21 22/26/23 21/19/17
f 22/28/23 23/29/18 21/30/17
f 4/3/24 2/2/24 16/21/24 14/15/24 12/13/24 10/9/24 8/7/24 6/5/24
