# Blender 3.6.15
# www.blender.org
o Cube.002
v -23.389269 0.055332 14.522004
v -23.389269 18.712629 14.522004
v -23.389269 0.055332 -14.522004
v -23.389269 18.712629 -14.522004
v 23.389269 0.055332 14.522004
v 23.389269 18.712629 14.522004
v 23.389269 0.055332 -14.522004
v 23.389269 18.712629 -14.522004
v -26.132196 18.712629 17.058786
v -26.132196 18.712629 -17.058786
v 26.132196 18.712629 -17.058786
v 26.132196 18.712629 17.058786
v -22.533016 28.460304 6.833673
v -22.533016 28.460304 -6.833673
v 22.533016 28.460304 -6.833673
v 22.533016 28.460304 6.833673
v 26.132196 21.532326 17.058786
v -26.132196 21.532326 17.058786
v -26.132196 21.532326 -17.058786
v 26.132196 21.532326 -17.058786
v 0.000000 32.811329 0.000000
v 8.673281 0.044845 18.172056
v 8.673281 6.396555 18.172056
v 8.673281 0.044845 14.554293
v 8.673281 6.396555 14.554293
v 12.291044 0.044845 18.172056
v 12.291044 6.396555 18.172056
v 12.291044 0.044845 14.554293
v 12.291044 6.396555 14.554293
v -10.991420 21.727144 16.264408
v -10.991420 30.138041 16.264408
v -10.991420 21.727144 14.264408
v -10.991420 30.138041 14.264408
v 10.991420 21.727144 16.264408
v 10.991420 30.138041 16.264408
v 10.991420 21.727144 14.264408
v 10.991420 30.138041 14.264408
vn -1.0000 -0.0000 -0.0000
vn -0.0000 -0.0000 -1.0000
vn 1.0000 -0.0000 -0.0000
vn -0.0000 -0.0000 1.0000
vn -0.0000 0.8279 0.5609
vn -0.0000 0.8304 0.5572
vn -0.0000 -1.0000 -0.0000
vn 0.7138 0.7003 -0.0000
vn 0.1896 0.9819 -0.0000
vn -0.0000 0.8279 -0.5609
vn -0.0000 0.8304 -0.5572
vn 0.8874 0.4610 -0.0000
vn -0.8874 0.4610 -0.0000
vn -0.7138 0.7003 -0.0000
vn -0.1896 0.9819 -0.0000
vn -0.0000 0.8435 0.5371
vn -0.0000 0.8435 -0.5371
vn -0.0000 1.0000 -0.0000
vt 0.277364 0.006621
vt 0.277364 0.182520
vt 0.003542 0.182520
vt 0.003542 0.006621
vt 0.992209 0.182520
vt 0.992209 0.358418
vt 0.551187 0.358418
vt 0.551187 0.182520
vt 0.992209 0.006621
vt 0.992209 0.182520
vt 0.718386 0.182520
vt 0.718386 0.006621
vt 0.060135 0.211098
vt 0.528677 0.211098
vt 0.496411 0.302765
vt 0.092401 0.302765
vt 0.617851 0.719331
vt 0.791541 0.719331
vt 0.806712 0.735734
vt 0.602681 0.735735
vt 0.791541 0.439585
vt 0.806712 0.423182
vt 0.617851 0.439585
vt 0.617851 0.719331
vt 0.602680 0.735735
vt 0.602681 0.423181
vt 0.496411 0.425291
vt 0.294406 0.364028
vt 0.528677 0.516957
vt 0.060135 0.516957
vt 0.092401 0.425291
vt 0.048092 0.785783
vt 0.234301 0.785783
vt 0.234301 0.801173
vt 0.048092 0.801173
vt 0.519554 0.785783
vt 0.705764 0.785783
vt 0.705764 0.801173
vt 0.519554 0.801173
vt 0.991017 0.785783
vt 0.991017 0.801173
vt 0.571621 0.578059
vt 0.571621 0.634831
vt 0.539286 0.634831
vt 0.539286 0.578059
vt 0.539285 0.634831
vt 0.539285 0.578059
vt 0.571621 0.667166
vt 0.539285 0.667166
vt 0.161093 0.555840
vt 0.161093 0.681151
vt 0.131296 0.681151
vt 0.131296 0.555840
vt 0.518407 0.555840
vt 0.518407 0.681151
vt 0.488610 0.681151
vt 0.488610 0.555840
vt 0.488610 0.710949
vt 0.161093 0.710949
s 1
f 1/1/1 2/2/1 4/3/1 3/4/1
f 3/5/2 4/6/2 8/7/2 7/8/2
f 7/9/3 8/10/3 6/11/3 5/12/3
f 5/12/4 6/11/4 2/2/4 1/1/4
f 18/13/5 17/14/5 16/15/6 13/16/6
f 4/17/7 2/18/7 9/19/7 10/20/7
f 2/18/7 6/21/7 12/22/7 9/19/7
f 8/23/7 4/24/7 10/25/7 11/26/7
f 6/21/7 8/23/7 11/26/7 12/22/7
f 16/15/8 15/27/8 21/28/9
f 20/29/10 19/30/10 14/31/11 15/27/11
f 17/14/12 20/29/12 15/27/8 16/15/8
f 19/30/13 18/13/13 13/16/14 14/31/14
f 10/32/1 9/33/1 18/34/1 19/35/1
f 12/36/3 11/37/3 20/38/3 17/39/3
f 11/37/2 10/40/2 19/41/2 20/38/2
f 9/33/4 12/36/4 17/39/4 18/34/4
f 14/31/14 13/16/14 21/28/15
f 13/16/6 16/15/6 21/28/16
f 15/27/11 14/31/11 21/28/17
f 22/42/1 23/43/1 25/44/1 24/45/1
f 24/42/2 25/43/2 29/44/2 28/45/2
f 28/42/3 29/43/3 27/44/3 26/45/3
f 26/42/4 27/43/4 23/46/4 22/47/4
f 29/48/18 25/49/18 23/46/18 27/43/18
f 30/50/1 31/51/1 33/52/1 32/53/1
f 36/54/3 37/55/3 35/56/3 34/57/3
f 34/57/4 35/56/4 31/51/4 30/50/4
f 37/58/18 33/59/18 31/51/18 35/56/18
