# Blender 3.6.15
# www.blender.org
o stands
v -62.467964 -0.464826 22.077705
v -62.467964 10.278447 22.077705
v -62.467964 34.190895 -22.077705
v 62.467964 -0.464826 22.077705
v 62.467964 10.278447 22.077705
v 62.467964 34.190895 -22.077705
v -62.467964 -0.464826 -26.278730
v 62.467964 -0.464826 -26.278730
v -62.467964 44.960846 -22.077705
v 62.467964 44.960846 -22.077705
v -62.467964 44.960846 -26.278730
v 62.467964 44.960846 -26.278730
v -60.095936 12.271493 17.430082
v 60.095936 12.271493 17.430082
v -60.095936 19.272785 17.430082
v 60.095936 19.272785 17.430082
v -60.095936 16.048412 10.335606
v 60.095936 16.048412 10.335606
v -60.095936 23.049704 10.335606
v 60.095936 23.049704 10.335606
v -60.095936 19.825331 3.241128
v 60.095936 19.825331 3.241128
v -60.095936 26.826622 3.241128
v 60.095936 26.826622 3.241128
v -60.095936 23.602249 -3.853349
v 60.095936 23.602249 -3.853349
v -60.095936 30.603540 -3.853349
v 60.095936 30.603540 -3.853349
v -60.095936 27.379168 -10.947826
v 60.095936 27.379168 -10.947826
v -60.095936 34.380463 -10.947826
v 60.095936 34.380463 -10.947826
v -60.095936 31.156086 -18.042303
v 60.095936 31.156086 -18.042303
v -60.095936 38.157379 -18.042303
v 60.095936 38.157379 -18.042303
v -62.467964 -36.395931 22.077705
v 62.467964 -36.395931 22.077705
v -62.467964 -36.395931 -26.278730
v 62.467964 -36.395931 -26.278730
vn -0.0000 -0.0000 1.0000
vn -1.0000 -0.0000 -0.0000
vn -0.0000 0.8793 0.4762
vn -0.0000 1.0000 -0.0000
vn -0.0000 -0.0000 -1.0000
vn 1.0000 -0.0000 -0.0000
vt 0.234953 0.566939
vt 0.793746 0.566939
vt 0.793746 0.615109
vt 0.234953 0.615109
vt 0.056025 0.377379
vt 0.038013 0.423557
vt 0.038013 0.228786
vt 0.781036 0.228786
vt 0.781036 0.274850
vt 0.245350 0.274850
vt 0.245350 0.228786
vt 0.234953 0.342347
vt 0.793746 0.342347
vt 0.793746 0.633898
vt 0.234953 0.633898
vt 0.221167 0.661047
vt 0.811437 0.661047
vt 0.811437 0.875665
vt 0.221167 0.875664
vt 0.056025 0.423557
vt 0.970361 0.423557
vt 0.970361 0.377379
vt 0.988374 0.423557
vt 0.988374 0.228786
vt 0.113510 0.160407
vt 0.931771 0.160407
vt 0.931771 0.208071
vt 0.113510 0.208071
vt 0.068554 0.040256
vt 0.886815 0.040256
vt 0.886815 0.087920
vt 0.068554 0.087920
vt 0.048401 0.102300
vt 0.866663 0.102300
vt 0.866663 0.149964
vt 0.048401 0.149965
vt 0.142963 0.040256
vt 0.961225 0.040256
vt 0.961225 0.087920
vt 0.142963 0.087921
vt 0.040650 0.160407
vt 0.858912 0.160407
vt 0.858912 0.208071
vt 0.040650 0.208071
vt 0.175517 0.102300
vt 0.993779 0.102300
vt 0.993779 0.149964
vt 0.175517 0.149965
vt 0.871517 0.493286
vt 0.871517 0.426662
vt 0.921022 0.426662
vt 0.921022 0.493286
vt 0.871517 0.546040
vt 0.871517 0.373907
vt 0.921022 0.373907
vt 0.921022 0.546040
vt 0.871517 0.546040
vt 0.871517 0.373907
vt 0.921022 0.373907
s 0
f 3/1/1 6/2/1 10/3/1 9/4/1
f 3/5/2 11/6/2 7/7/2
f 4/8/1 5/9/1 2/10/1 1/11/1
f 6/2/3 3/1/3 2/12/3 5/13/3
f 9/4/4 10/3/4 12/14/4 11/15/4
f 8/16/5 7/17/5 11/18/5 12/19/5
f 9/20/2 11/6/2 3/5/2
f 7/7/2 1/11/2 2/10/2 3/5/2
f 10/21/6 6/22/6 12/23/6
f 6/22/6 8/24/6 12/23/6
f 4/8/6 8/24/6 6/22/6 5/9/6
f 13/25/1 14/26/1 16/27/1 15/28/1
f 17/29/1 18/30/1 20/31/1 19/32/1
f 21/33/1 22/34/1 24/35/1 23/36/1
f 25/37/1 26/38/1 28/39/1 27/40/1
f 29/41/1 30/42/1 32/43/1 31/44/1
f 33/45/1 34/46/1 36/47/1 35/48/1
f 8/49/6 4/50/6 38/51/6 40/52/6
f 7/53/5 8/54/5 40/55/5 39/56/5
f 4/57/1 1/58/1 37/59/1 38/56/1
f 1/49/2 7/50/2 39/51/2 37/52/2
