# Blender 3.6.15
# www.blender.org
o door
v 0.221095 -3.689650 1.941324
v 0.221095 -3.689650 0.158117
v 0.221095 -3.689650 -0.931025
v 0.221095 -0.117776 0.158117
v 0.000000 0.137370 -2.027462
v 0.221095 3.427071 -0.096834
v -0.221096 3.427071 -0.096834
v -0.221096 -0.117776 0.158117
v -0.221096 -3.689650 0.158117
v 0.000000 0.118148 1.629668
v 0.000000 0.938419 1.629668
v 0.000000 3.033868 -2.027462
v -0.221096 -3.689650 1.941324
v -0.221096 -3.689650 -0.931025
v 0.221095 1.053879 1.941324
v 0.221095 -0.210052 1.941324
v 0.221095 -0.182463 -2.339118
v 0.000000 0.194088 0.162141
v 0.221095 3.332680 -2.339118
v -0.221096 -0.210052 1.941324
v -0.221096 -0.182463 -2.339118
v -0.221096 1.053879 1.941324
v -0.221096 3.332680 -2.339118
v 0.000000 3.109333 -0.234769
vn 1.0000 -0.0000 -0.0000
vn -1.0000 -0.0000 -0.0000
vn -0.0000 -0.0000 1.0000
vn -0.0000 -1.0000 -0.0000
vn -0.0000 0.6515 0.7586
vn -0.0000 -0.0000 -1.0000
vn -0.0000 -0.3726 -0.9280
vn -0.0000 0.9991 -0.0421
vn 0.8156 -0.0000 -0.5786
vn 0.8156 0.5784 -0.0150
vn 0.8156 -0.0000 0.5786
vn 0.8156 -0.5781 0.0243
vn -0.8156 0.5778 0.0299
vn -0.8156 0.5784 -0.0150
vn -0.8156 -0.0000 -0.5786
vn -0.8156 -0.0000 0.5786
vn -0.8156 -0.5781 0.0243
vn -0.8156 -0.3770 -0.4389
vn 0.8156 0.5778 0.0299
vn 0.8156 -0.3770 -0.4389
vt 0.392627 0.574215
vt 0.500000 0.625000
vt 0.392426 0.625000
vt 0.487891 0.672240
vt 0.398225 0.672240
vt 0.499630 0.574215
vt 0.598884 0.618246
vt 0.593376 0.672240
vt 0.607362 0.574215
vt 0.511025 0.663983
vt 0.509012 0.580518
vt 0.596880 0.580375
vt 0.585650 0.614592
vt 0.511025 0.663983
vt 0.508654 0.624939
vt 0.570019 0.663983
vt 0.585650 0.614592
vt 0.509023 0.625107
vt 0.000000 0.000000
s 0
f 3/1/1 4/2/1 2/3/1
f 2/3/1 16/4/1 1/5/1
f 14/1/2 8/2/2 21/6/2
f 9/3/2 20/4/2 8/2/2
f 20/4/3 1/5/3 16/4/3
f 9/3/4 3/1/4 2/3/4
f 7/7/5 15/8/5 6/7/5
f 21/6/6 19/9/6 17/6/6
f 14/1/7 17/6/7 3/1/7
f 13/5/4 2/3/4 1/5/4
f 23/9/8 6/7/8 19/9/8
f 22/8/3 16/4/3 15/8/3
f 10/10/9 15/8/9 16/4/9
f 5/11/10 4/2/10 17/6/10
f 5/11/11 19/9/11 12/12/11
f 12/12/12 6/7/12 24/13/12
f 10/14/13 8/2/13 20/4/13
f 5/11/14 8/2/14 18/15/14
f 10/14/15 22/8/15 11/16/15
f 5/11/16 23/9/16 21/6/16
f 12/12/17 7/7/17 23/9/17
f 24/17/18 22/8/18 7/7/18
f 10/10/19 4/2/19 18/18/19
f 24/13/20 15/8/20 11/16/20
f 5/19/1 12/19/1 24/19/1
f 24/19/1 11/19/1 18/19/1
f 18/19/1 11/19/1 10/19/1
f 18/19/1 5/19/1 24/19/1
f 3/1/1 17/6/1 4/2/1
f 2/3/1 4/2/1 16/4/1
f 14/1/2 9/3/2 8/2/2
f 9/3/2 13/5/2 20/4/2
f 20/4/3 13/5/3 1/5/3
f 9/3/4 14/1/4 3/1/4
f 7/7/5 22/8/5 15/8/5
f 21/6/6 23/9/6 19/9/6
f 14/1/7 21/6/7 17/6/7
f 13/5/4 9/3/4 2/3/4
f 23/9/8 7/7/8 6/7/8
f 22/8/3 20/4/3 16/4/3
f 10/10/9 11/16/9 15/8/9
f 5/11/10 18/18/10 4/2/10
f 5/11/11 17/6/11 19/9/11
f 12/12/12 19/9/12 6/7/12
f 10/14/13 18/15/13 8/2/13
f 5/11/14 21/6/14 8/2/14
f 10/14/15 20/4/15 22/8/15
f 5/11/16 12/12/16 23/9/16
f 12/12/17 24/17/17 7/7/17
f 24/17/18 11/16/18 22/8/18
f 10/10/19 16/4/19 4/2/19
f 24/13/20 6/7/20 15/8/20
