# Blender 3.6.15
# www.blender.org
o Cube.004
v -0.244367 -6.136040 19.124836
v -0.244367 18.774498 19.124836
v -0.244367 -6.136040 18.423824
v -0.244367 18.774498 18.423824
v 0.244367 -6.136040 19.124836
v 0.244367 18.774498 19.124836
v 0.244367 -6.136040 18.423824
v 0.244367 18.774498 18.423824
v -0.244367 -6.136040 -19.124836
v -0.244367 18.774498 -19.124836
v -0.244367 -6.136040 -18.423824
v -0.244367 18.774498 -18.423824
v 0.244367 -6.136040 -19.124836
v 0.244367 18.774498 -19.124836
v 0.244367 -6.136040 -18.423824
v 0.244367 18.774498 -18.423824
v -0.420295 16.725117 20.341677
v -0.420295 25.604818 20.341677
v -0.420295 16.725117 -20.341677
v -0.420295 25.604818 -20.341677
v 0.420295 16.725117 20.341677
v 0.420295 25.604818 20.341677
v 0.420295 16.725117 -20.341677
v 0.420295 25.604818 -20.341677
vn -1.0000 -0.0000 -0.0000
vn -0.0000 -0.0000 -1.0000
vn 1.0000 -0.0000 -0.0000
vn -0.0000 -0.0000 1.0000
vn -0.0000 -1.0000 -0.0000
vn -0.0000 1.0000 -0.0000
vt 0.634398 0.394260
vt 0.700444 0.394260
vt 0.700444 0.460307
vt 0.634398 0.460307
vt 0.700444 0.526353
vt 0.634398 0.526353
vt 0.700444 0.592400
vt 0.634398 0.592400
vt 0.700444 0.658446
vt 0.634398 0.658446
vt 0.218264 1.000000
vt 0.000000 1.000000
vt -0.000000 0.000000
vt 0.218264 0.000000
vt 0.498513 0.218264
vt 0.498513 0.436527
vt 0.477851 0.436527
vt 0.477851 0.218264
vt 0.000000 0.000000
vt 0.218264 0.000000
vt 0.218264 1.000000
vt 0.000000 1.000000
vt 0.498513 0.000000
vt 0.498513 0.218264
vt 0.477851 0.218264
vt 0.477851 0.000000
vt 0.436527 -0.000000
vt 0.457189 -0.000000
vt 0.457189 1.000000
vt 0.436528 1.000000
vt 0.457189 -0.000000
vt 0.477851 -0.000000
vt 0.477851 1.000000
vt 0.457189 1.000000
s 0
f 1/1/1 2/2/1 4/3/1 3/4/1
f 3/4/2 4/3/2 8/5/2 7/6/2
f 7/6/3 8/5/3 6/7/3 5/8/3
f 5/8/4 6/7/4 2/9/4 1/10/4
f 9/1/1 11/4/1 12/3/1 10/2/1
f 11/4/4 15/6/4 16/5/4 12/3/4
f 15/6/3 13/8/3 14/7/3 16/5/3
f 13/8/2 9/10/2 10/9/2 14/7/2
f 17/11/1 18/12/1 20/13/1 19/14/1
f 19/15/2 20/16/2 24/17/2 23/18/2
f 23/19/3 24/20/3 22/21/3 21/22/3
f 21/23/4 22/24/4 18/25/4 17/26/4
f 19/27/5 23/28/5 21/29/5 17/30/5
f 24/31/6 20/32/6 18/33/6 22/34/6
