# Blender 3.6.15
# www.blender.org
o tree2
v -0.028908 42.842037 -5.914846
v 0.051040 36.813873 -9.384058
v 2.081362 26.317589 -16.026825
v 3.401123 41.973782 -6.155688
v 10.257643 33.640549 -11.765917
v 9.122997 28.196566 -13.483198
v -1.356026 17.336414 -1.126859
v -0.918955 45.161018 -0.177878
v 7.976095 43.466373 -0.463284
v 19.352781 33.204308 -1.476959
v 16.486065 26.203728 0.718582
v 3.818058 41.604816 4.259613
v 9.838891 33.373589 9.783216
v 13.550807 24.545975 11.431927
v -2.819067 42.104389 5.625103
v -3.656439 34.038551 11.877367
v -0.233308 24.467661 15.976626
v -5.282444 43.055912 4.768670
v -14.133320 35.206543 6.754381
v -13.870096 26.023977 12.546820
v -6.003619 43.270370 -1.020997
v -18.642397 33.105598 -4.578103
v -17.907970 26.686279 -2.835967
v -4.019188 42.157478 -4.087925
v -9.156672 36.856491 -6.250599
v -9.725661 26.945271 -11.612756
v 0.000000 -6.721441 -2.319932
v 0.000000 28.334799 -1.000000
v 2.206387 -6.721441 -0.716899
v 0.951057 28.334799 -0.309017
v 1.363622 -6.721441 1.876865
v 0.587785 28.334799 0.809017
v -1.363622 -6.721441 1.876865
v -0.587785 28.334799 0.809017
v -2.206387 -6.721441 -0.716899
v -0.951057 28.334799 -0.309017
vn 0.4901 -0.3071 -0.8158
vn 0.0118 -0.2876 -0.9577
vn -0.1537 0.5097 -0.8465
vn 0.4933 0.3528 -0.7951
vn 0.2172 0.7512 -0.6233
vn -0.0928 0.7699 -0.6314
vn -0.0282 0.9995 0.0140
vn -0.0317 -0.9937 -0.1071
vn 0.8767 -0.4800 -0.0323
vn 0.9399 0.3291 -0.0906
vn 0.4847 0.8737 0.0410
vn -0.3379 0.7148 -0.6123
vn -0.4008 0.5236 -0.7517
vn 0.4824 0.4680 0.7405
vn 0.2865 0.7340 0.6158
vn 0.0062 -0.3574 0.9339
vn 0.6380 -0.4087 0.6526
vn -0.0636 0.4982 0.8647
vn -0.6351 -0.3151 0.7052
vn 0.0288 0.7230 0.6902
vn -0.6949 0.5043 0.5126
vn -0.8992 -0.3711 -0.2316
vn -0.8483 0.4026 -0.3440
vn -0.3242 0.8228 0.4668
vn -0.4651 -0.2586 -0.8466
vn -0.4651 0.8568 -0.2229
vn -0.0000 0.0376 -0.9993
vn 0.9504 0.0376 -0.3088
vn 0.5874 0.0376 0.8084
vn -0.5874 0.0376 0.8084
vn -0.9504 0.0376 -0.3088
vt 0.292951 0.422541
vt 0.295232 0.463175
vt 0.221587 0.457669
vt 0.266937 0.407441
vt 0.182947 0.414572
vt 0.163846 0.442848
vt 0.043523 0.422672
vt 0.640038 0.534081
vt 0.315327 0.341626
vt 0.272653 0.348359
vt 0.177993 0.356069
vt 0.147257 0.485059
vt 0.207069 0.526260
vt 0.262251 0.239524
vt 0.134937 0.298051
vt 0.464698 0.000377
vt 0.350373 0.268251
vt 0.128634 0.000000
vt 0.350409 1.000000
vt 0.262399 0.717394
vt 0.000000 0.244513
vt 0.038376 0.853772
vt 0.185336 0.654672
vt 0.269186 0.601841
vt 0.235109 0.582636
vt 0.000000 0.589269
vt 0.060593 0.574277
vt 0.282907 0.528855
vt 0.115636 0.519057
vt 0.784499 0.142736
vt 0.798685 0.784039
vt 0.777211 0.784990
vt 0.734680 0.144941
vt 0.755800 0.786889
vt 0.685007 0.149347
vt 0.933859 0.149347
vt 0.863066 0.786889
vt 0.841655 0.784990
vt 0.884186 0.144941
vt 0.820181 0.784039
vt 0.834367 0.142736
s 1
f 6/1/1 3/2/2 2/3/3 5/4/4
f 4/5/5 1/6/6 8/7/7
f 7/8/8 6/1/1 11/9/9
f 10/10/10 5/4/4 4/5/5 9/11/11
f 24/12/12 1/6/6 2/3/3 25/13/13
f 8/7/7 9/11/11 4/5/5
f 13/14/14 10/10/10 9/11/11 12/15/15
f 17/16/16 14/17/17 13/14/14 16/18/18
f 8/7/7 12/15/15 9/11/11
f 7/8/8 17/19/16 20/20/19
f 8/7/7 15/21/20 12/15/15
f 20/20/19 17/19/16 16/22/18 19/23/21
f 16/18/18 13/14/14 12/15/15 15/21/20
f 7/8/8 20/20/19 23/24/22
f 23/24/22 20/20/19 19/23/21 22/25/23
f 19/23/21 16/22/18 15/26/20 18/27/24
f 8/7/7 18/27/24 15/26/20
f 7/8/8 23/24/22 26/28/25
f 26/28/25 23/24/22 22/25/23 25/13/13
f 22/25/23 19/23/21 18/27/24 21/29/26
f 8/7/7 21/29/26 18/27/24
f 7/8/8 26/28/25 3/2/2
f 25/13/13 22/25/23 21/29/26 24/12/12
f 8/7/7 24/12/12 21/29/26
f 1/6/6 24/12/12 8/7/7
f 11/9/9 6/1/1 5/4/4 10/10/10
f 14/17/17 11/9/9 10/10/10 13/14/14
f 7/8/8 3/2/2 6/1/1
f 7/8/8 11/9/9 14/17/17
f 25/13/13 2/3/3 3/2/2 26/28/25
f 7/8/8 14/17/17 17/16/16
f 5/4/4 2/3/3 1/6/6 4/5/5
f 27/30/27 28/31/27 30/32/28 29/33/28
f 29/33/28 30/32/28 32/34/29 31/35/29
f 31/36/29 32/37/29 34/38/30 33/39/30
f 33/39/30 34/38/30 36/40/31 35/41/31
f 35/41/31 36/40/31 28/31/27 27/30/27
