# Blender 3.6.15
# www.blender.org
o Cylinder
v -47.285027 4.596708 19.402273
v -39.674088 0.220094 19.402266
v -50.437565 -3.014215 19.402273
v -37.387085 -0.727214 19.402266
v -47.285027 -10.625144 19.402254
v -36.439781 -3.014216 19.402266
v -39.674088 -13.777685 19.402254
v -37.387085 -5.301219 19.402260
v -32.063160 -10.625144 19.402254
v -39.674088 -6.248524 19.402260
v -28.910624 -3.014215 19.402273
v -41.961094 -5.301219 19.402260
v -32.063160 4.596708 19.402273
v -42.908398 -3.014216 19.402266
v -39.674088 7.749257 19.402273
v -41.961094 -0.727214 19.402266
v -39.674088 0.220094 0.000000
v -37.387085 -0.727213 0.000000
v -36.439781 -3.014216 0.000000
v -37.387085 -5.301219 0.000000
v -39.674088 -6.248524 0.000000
v -41.961094 -5.301219 0.000000
v -42.908398 -3.014216 0.000000
v -41.961094 -0.727213 0.000000
v -47.285027 4.596703 25.253901
v -50.437565 -3.014220 25.253901
v -47.285027 -10.625149 25.253878
v -39.674088 -13.777690 25.253878
v -32.063160 -10.625149 25.253878
v -28.910624 -3.014220 25.253901
v -32.063160 4.596703 25.253901
v -39.674088 7.749252 25.253901
v 47.285027 4.596708 19.402273
v 39.674088 0.220094 19.402266
v 50.437565 -3.014215 19.402273
v 37.387085 -0.727214 19.402266
v 47.285027 -10.625144 19.402254
v 36.439781 -3.014216 19.402266
v 39.674088 -13.777685 19.402254
v 37.387085 -5.301219 19.402260
v 32.063160 -10.625144 19.402254
v 39.674088 -6.248524 19.402260
v 28.910624 -3.014215 19.402273
v 41.961094 -5.301219 19.402260
v 32.063160 4.596708 19.402273
v 42.908398 -3.014216 19.402266
v 39.674088 7.749257 19.402273
v 41.961094 -0.727214 19.402266
v 39.674088 0.220094 0.000000
v 37.387085 -0.727213 0.000000
v 36.439781 -3.014216 0.000000
v 37.387085 -5.301219 0.000000
v 39.674088 -6.248524 0.000000
v 41.961094 -5.301219 0.000000
v 42.908398 -3.014216 0.000000
v 41.961094 -0.727213 0.000000
v 47.285027 4.596703 25.253901
v 50.437565 -3.014220 25.253901
v 47.285027 -10.625149 25.253878
v 39.674088 -13.777690 25.253878
v 32.063160 -10.625149 25.253878
v 28.910624 -3.014220 25.253901
v 32.063160 4.596703 25.253901
v 39.674088 7.749252 25.253901
v -47.285027 4.596708 -19.402273
v -39.674088 0.220094 -19.402266
v -50.437565 -3.014215 -19.402273
v -37.387085 -0.727214 -19.402266
v -47.285027 -10.625144 -19.402254
v -36.439781 -3.014216 -19.402266
v -39.674088 -13.777685 -19.402254
v -37.387085 -5.301219 -19.402260
v -32.063160 -10.625144 -19.402254
v -39.674088 -6.248524 -19.402260
v -28.910624 -3.014215 -19.402273
v -41.961094 -5.301219 -19.402260
v -32.063160 4.596708 -19.402273
v -42.908398 -3.014216 -19.402266
v -39.674088 7.749257 -19.402273
v -41.961094 -0.727214 -19.402266
v -47.285027 4.596703 -25.253901
v -50.437565 -3.014220 -25.253901
v -47.285027 -10.625149 -25.253878
v -39.674088 -13.777690 -25.253878
v -32.063160 -10.625149 -25.253878
v -28.910624 -3.014220 -25.253901
v -32.063160 4.596703 -25.253901
v -39.674088 7.749252 -25.253901
v 47.285027 4.596708 -19.402273
v 39.674088 0.220094 -19.402266
v 50.437565 -3.014215 -19.402273
v 37.387085 -0.727214 -19.402266
v 47.285027 -10.625144 -19.402254
v 36.439781 -3.014216 -19.402266
v 39.674088 -13.777685 -19.402254
v 37.387085 -5.301219 -19.402260
v 32.063160 -10.625144 -19.402254
v 39.674088 -6.248524 -19.402260
v 28.910624 -3.014215 -19.402273
v 41.961094 -5.301219 -19.402260
v 32.063160 4.596708 -19.402273
v 42.908398 -3.014216 -19.402266
v 39.674088 7.749257 -19.402273
v 41.961094 -0.727214 -19.402266
v 47.285027 4.596703 -25.253901
v 50.437565 -3.014220 -25.253901
v 47.285027 -10.625149 -25.253878
v 39.674088 -13.777690 -25.253878
v 32.063160 -10.625149 -25.253878
v 28.910624 -3.014220 -25.253901
v 32.063160 4.596703 -25.253901
v 39.674088 7.749252 -25.253901
vn 0.3827 0.9239 -0.0000
vn 0.9239 0.3827 -0.0000
vn 0.9239 -0.3827 -0.0000
vn 0.3827 -0.9239 -0.0000
vn -0.3827 -0.9239 -0.0000
vn -0.9239 -0.3827 -0.0000
vn -0.0000 -0.0000 -1.0000
vn -0.9239 0.3827 -0.0000
vn -0.3827 0.9239 -0.0000
vn -0.0000 -0.0000 1.0000
vt 1.000000 1.000000
vt 0.875000 0.750000
vt 1.000000 0.750000
vt 0.875000 1.000000
vt 0.750000 0.750000
vt 0.625000 1.000000
vt 0.625000 0.750000
vt 0.500000 0.750000
vt 0.500000 1.000000
vt 0.375000 0.750000
vt 0.375000 1.000000
vt 0.250000 0.750000
vt 0.125000 1.000000
vt 0.000000 1.000000
vt 0.250000 1.000000
vt 0.125000 0.750000
vt 0.000000 0.750000
vt 0.010000 0.250000
vt 0.250000 0.010000
vt 0.490000 0.250000
vt 0.750000 1.000000
vt 0.250000 0.490000
vt 0.419706 0.419706
vt 0.080294 0.419706
vt 0.080294 0.080294
vt 0.419706 0.080294
s 0
f 2/1/1 18/2/1 17/3/1
f 4/4/2 19/5/2 18/2/2
f 19/5/3 8/6/3 20/7/3
f 8/6/4 21/8/4 20/7/4
f 10/9/5 22/10/5 21/8/5
f 12/11/6 23/12/6 22/10/6
f 16/13/7 15/14/7 2/14/7
f 14/15/8 24/16/8 23/12/8
f 16/13/9 17/17/9 24/16/9
f 26/18/10 28/19/10 30/20/10
f 4/4/7 11/21/7 6/21/7
f 3/15/8 25/13/8 1/13/8
f 4/4/7 15/1/7 13/4/7
f 8/6/7 11/21/7 9/6/7
f 12/11/7 3/15/7 14/15/7
f 8/6/7 7/9/7 10/9/7
f 16/13/7 3/15/7 1/13/7
f 12/11/7 7/9/7 5/11/7
f 15/1/1 31/4/1 13/4/1
f 1/13/9 32/14/9 15/14/9
f 11/21/2 31/4/2 30/21/2
f 7/9/5 27/11/5 5/11/5
f 3/15/6 27/11/6 26/15/6
f 11/21/3 29/6/3 9/6/3
f 7/9/4 29/6/4 28/9/4
f 50/2/9 34/1/9 49/3/9
f 51/5/8 36/4/8 50/2/8
f 51/5/6 40/6/6 38/21/6
f 53/8/5 40/6/5 52/7/5
f 54/10/4 42/9/4 53/8/4
f 55/12/3 44/11/3 54/10/3
f 47/14/7 48/13/7 34/14/7
f 56/16/2 46/15/2 55/12/2
f 49/17/1 48/13/1 56/16/1
f 60/19/10 58/18/10 64/22/10
f 43/21/7 36/4/7 38/21/7
f 57/13/2 35/15/2 33/13/2
f 45/4/7 34/1/7 36/4/7
f 40/6/7 43/21/7 38/21/7
f 35/15/7 44/11/7 46/15/7
f 39/9/7 40/6/7 42/9/7
f 48/13/7 35/15/7 46/15/7
f 44/11/7 39/9/7 42/9/7
f 63/4/9 47/1/9 45/4/9
f 64/14/1 33/13/1 47/14/1
f 43/21/8 63/4/8 45/4/8
f 59/11/4 39/9/4 37/11/4
f 35/15/3 59/11/3 37/11/3
f 61/6/6 43/21/6 41/6/6
f 39/9/5 61/6/5 41/6/5
f 18/2/1 66/1/1 17/3/1
f 19/5/2 68/4/2 18/2/2
f 19/5/3 72/6/3 70/21/3
f 21/8/4 72/6/4 20/7/4
f 22/10/5 74/9/5 21/8/5
f 23/12/6 76/11/6 22/10/6
f 79/14/10 80/13/10 66/14/10
f 24/16/8 78/15/8 23/12/8
f 17/17/9 80/13/9 24/16/9
f 84/19/7 82/18/7 88/22/7
f 75/21/10 68/4/10 70/21/10
f 81/13/8 67/15/8 65/13/8
f 77/4/10 66/1/10 68/4/10
f 72/6/10 75/21/10 70/21/10
f 67/15/10 76/11/10 78/15/10
f 71/9/10 72/6/10 74/9/10
f 80/13/10 67/15/10 78/15/10
f 76/11/10 71/9/10 74/9/10
f 87/4/1 79/1/1 77/4/1
f 88/14/9 65/13/9 79/14/9
f 75/21/2 87/4/2 77/4/2
f 83/11/5 71/9/5 69/11/5
f 67/15/6 83/11/6 69/11/6
f 85/6/3 75/21/3 73/6/3
f 71/9/4 85/6/4 73/6/4
f 90/1/9 50/2/9 49/3/9
f 92/4/8 51/5/8 50/2/8
f 51/5/6 96/6/6 52/7/6
f 96/6/5 53/8/5 52/7/5
f 98/9/4 54/10/4 53/8/4
f 100/11/3 55/12/3 54/10/3
f 104/13/10 103/14/10 90/14/10
f 102/15/2 56/16/2 55/12/2
f 104/13/1 49/17/1 56/16/1
f 106/18/7 108/19/7 110/20/7
f 92/4/10 99/21/10 94/21/10
f 91/15/2 105/13/2 89/13/2
f 92/4/10 103/1/10 101/4/10
f 96/6/10 99/21/10 97/6/10
f 100/11/10 91/15/10 102/15/10
f 96/6/10 95/9/10 98/9/10
f 104/13/10 91/15/10 89/13/10
f 100/11/10 95/9/10 93/11/10
f 103/1/9 111/4/9 101/4/9
f 89/13/1 112/14/1 103/14/1
f 99/21/8 111/4/8 110/21/8
f 95/9/4 107/11/4 93/11/4
f 91/15/3 107/11/3 106/15/3
f 99/21/6 109/6/6 97/6/6
f 95/9/5 109/6/5 108/9/5
f 2/1/1 4/4/1 18/2/1
f 4/4/2 6/21/2 19/5/2
f 19/5/3 6/21/3 8/6/3
f 8/6/4 10/9/4 21/8/4
f 10/9/5 12/11/5 22/10/5
f 12/11/6 14/15/6 23/12/6
f 16/13/7 1/13/7 15/14/7
f 14/15/8 16/13/8 24/16/8
f 16/13/9 2/14/9 17/17/9
f 30/20/10 31/23/10 32/22/10
f 32/22/10 25/24/10 26/18/10
f 26/18/10 27/25/10 28/19/10
f 28/19/10 29/26/10 30/20/10
f 30/20/10 32/22/10 26/18/10
f 4/4/7 13/4/7 11/21/7
f 3/15/8 26/15/8 25/13/8
f 4/4/7 2/1/7 15/1/7
f 8/6/7 6/21/7 11/21/7
f 12/11/7 5/11/7 3/15/7
f 8/6/7 9/6/7 7/9/7
f 16/13/7 14/15/7 3/15/7
f 12/11/7 10/9/7 7/9/7
f 15/1/1 32/1/1 31/4/1
f 1/13/9 25/13/9 32/14/9
f 11/21/2 13/4/2 31/4/2
f 7/9/5 28/9/5 27/11/5
f 3/15/6 5/11/6 27/11/6
f 11/21/3 30/21/3 29/6/3
f 7/9/4 9/6/4 29/6/4
f 50/2/9 36/4/9 34/1/9
f 51/5/8 38/21/8 36/4/8
f 51/5/6 52/7/6 40/6/6
f 53/8/5 42/9/5 40/6/5
f 54/10/4 44/11/4 42/9/4
f 55/12/3 46/15/3 44/11/3
f 47/14/7 33/13/7 48/13/7
f 56/16/2 48/13/2 46/15/2
f 49/17/1 34/14/1 48/13/1
f 64/22/10 63/23/10 62/20/10
f 62/20/10 61/26/10 60/19/10
f 60/19/10 59/25/10 58/18/10
f 58/18/10 57/24/10 64/22/10
f 64/22/10 62/20/10 60/19/10
f 43/21/7 45/4/7 36/4/7
f 57/13/2 58/15/2 35/15/2
f 45/4/7 47/1/7 34/1/7
f 40/6/7 41/6/7 43/21/7
f 35/15/7 37/11/7 44/11/7
f 39/9/7 41/6/7 40/6/7
f 48/13/7 33/13/7 35/15/7
f 44/11/7 37/11/7 39/9/7
f 63/4/9 64/1/9 47/1/9
f 64/14/1 57/13/1 33/13/1
f 43/21/8 62/21/8 63/4/8
f 59/11/4 60/9/4 39/9/4
f 35/15/3 58/15/3 59/11/3
f 61/6/6 62/21/6 43/21/6
f 39/9/5 60/9/5 61/6/5
f 18/2/1 68/4/1 66/1/1
f 19/5/2 70/21/2 68/4/2
f 19/5/3 20/7/3 72/6/3
f 21/8/4 74/9/4 72/6/4
f 22/10/5 76/11/5 74/9/5
f 23/12/6 78/15/6 76/11/6
f 79/14/10 65/13/10 80/13/10
f 24/16/8 80/13/8 78/15/8
f 17/17/9 66/14/9 80/13/9
f 88/22/7 87/23/7 86/20/7
f 86/20/7 85/26/7 84/19/7
f 84/19/7 83/25/7 82/18/7
f 82/18/7 81/24/7 88/22/7
f 88/22/7 86/20/7 84/19/7
f 75/21/10 77/4/10 68/4/10
f 81/13/8 82/15/8 67/15/8
f 77/4/10 79/1/10 66/1/10
f 72/6/10 73/6/10 75/21/10
f 67/15/10 69/11/10 76/11/10
f 71/9/10 73/6/10 72/6/10
f 80/13/10 65/13/10 67/15/10
f 76/11/10 69/11/10 71/9/10
f 87/4/1 88/1/1 79/1/1
f 88/14/9 81/13/9 65/13/9
f 75/21/2 86/21/2 87/4/2
f 83/11/5 84/9/5 71/9/5
f 67/15/6 82/15/6 83/11/6
f 85/6/3 86/21/3 75/21/3
f 71/9/4 84/9/4 85/6/4
f 90/1/9 92/4/9 50/2/9
f 92/4/8 94/21/8 51/5/8
f 51/5/6 94/21/6 96/6/6
f 96/6/5 98/9/5 53/8/5
f 98/9/4 100/11/4 54/10/4
f 100/11/3 102/15/3 55/12/3
f 104/13/10 89/13/10 103/14/10
f 102/15/2 104/13/2 56/16/2
f 104/13/1 90/14/1 49/17/1
f 110/20/7 111/23/7 112/22/7
f 112/22/7 105/24/7 106/18/7
f 106/18/7 107/25/7 108/19/7
f 108/19/7 109/26/7 110/20/7
f 110/20/7 112/22/7 106/18/7
f 92/4/10 101/4/10 99/21/10
f 91/15/2 106/15/2 105/13/2
f 92/4/10 90/1/10 103/1/10
f 96/6/10 94/21/10 99/21/10
f 100/11/10 93/11/10 91/15/10
f 96/6/10 97/6/10 95/9/10
f 104/13/10 102/15/10 91/15/10
f 100/11/10 98/9/10 95/9/10
f 103/1/9 112/1/9 111/4/9
f 89/13/1 105/13/1 112/14/1
f 99/21/8 101/4/8 111/4/8
f 95/9/4 108/9/4 107/11/4
f 91/15/3 93/11/3 107/11/3
f 99/21/6 110/21/6 109/6/6
f 95/9/5 97/6/5 109/6/5
