# Blender 3.6.15
# www.blender.org
o hat_propeller
v 0.000000 1.281080 -1.256793
v 0.000000 2.617345 -0.000001
v 1.088413 1.366229 -0.906768
v 1.240400 1.582377 0.628395
v -1.240400 1.582377 0.628395
v -1.088413 1.366229 -0.906768
v 0.000000 1.699146 1.338664
v 0.910658 2.276509 -0.640393
v 0.000000 2.276509 -0.887790
v 1.071680 2.276509 0.525767
v 0.000000 2.276509 1.133410
v -1.071680 2.276509 0.525767
v -0.910658 2.276509 -0.640393
v 0.000000 2.531426 -0.067036
v 0.000000 2.794274 -0.067036
v 0.058055 2.531426 0.033518
v 0.058055 2.794274 0.033518
v -0.058055 2.531426 0.033518
v -0.058055 2.794274 0.033518
v 0.000000 2.758189 -0.067036
v 0.058055 2.758189 0.033518
v -0.058055 2.758189 0.033518
v 0.510567 2.825864 -0.473558
v 0.510567 2.825864 -0.473558
v 0.665397 2.825864 -0.205385
v 0.665397 2.825864 -0.205385
v 0.154830 2.825864 0.678943
v 0.154830 2.825864 0.678943
v -0.154830 2.825864 0.678943
v -0.154830 2.825864 0.678943
v -0.665397 2.825864 -0.205385
v -0.665397 2.825864 -0.205385
v -0.510567 2.825864 -0.473558
v -0.510567 2.825864 -0.473558
v -0.000000 2.258800 -0.011248
vn -0.0000 0.3386 -0.9409
vn -0.0000 0.6666 -0.7454
vn 0.5950 0.6438 -0.4811
vn 0.6616 0.3309 -0.6729
vn 0.6974 0.6349 0.3323
vn 0.8792 0.2875 0.3801
vn -0.8682 -0.4274 0.2522
vn -0.6974 0.6349 0.3323
vn -0.5950 0.6438 -0.4811
vn -0.6616 0.3309 -0.6729
vn -0.0000 0.3047 0.9524
vn -0.0000 0.6460 0.7634
vn -0.0000 0.9997 -0.0232
vn -0.0000 1.0000 -0.0000
vn -0.8660 -0.0000 0.5000
vn -0.0000 -0.0000 -1.0000
vn 0.8660 -0.0000 0.5000
vn -0.9440 -0.0000 0.3299
vn -0.5772 0.7893 0.2093
vn 0.1506 0.4154 0.8971
vn 0.1863 -0.0000 0.9825
vn -0.0423 0.9988 0.0244
vn 0.0903 -0.9945 -0.0521
vn 0.7577 -0.0000 0.6526
vn 0.6321 0.5780 0.5161
vn -0.6321 0.5780 0.5161
vn -0.7577 -0.0000 0.6526
vn -0.0000 0.9988 -0.0489
vn -0.0000 -0.9945 0.1043
vn -0.1863 -0.0000 0.9825
vn -0.1506 0.4154 0.8971
vn 0.5772 0.7893 0.2093
vn 0.9440 -0.0000 0.3299
vn 0.0423 0.9988 0.0244
vn -0.0903 -0.9945 -0.0521
vn -0.3390 -0.8395 0.4246
vn -0.4414 -0.8929 -0.0883
vn -0.0000 -0.9941 0.1086
vn -0.0000 -0.9238 -0.3830
vn 0.0166 -0.9894 0.1440
vn 0.3390 -0.8395 0.4246
vn -0.0000 -0.7866 0.6175
vt 0.896504 0.977502
vt 0.802032 0.926192
vt 0.846778 0.847799
vt 0.933120 0.867330
vt 0.820447 0.763234
vt 0.876634 0.721697
vt 0.588239 0.721697
vt 0.644431 0.763234
vt 0.618100 0.847799
vt 0.531754 0.867330
vt 0.662842 0.926192
vt 0.568374 0.977502
vt 0.732437 0.679175
vt 0.732437 0.722722
vt 0.732437 0.841071
vt 0.747903 0.605106
vt 0.748525 0.594332
vt 0.758281 0.603918
vt 0.751730 0.598335
vt 0.754542 0.596638
vt 0.750210 0.602167
vt 0.751149 0.599069
vt 0.751137 0.598483
vt 0.749265 0.597082
vt 0.546592 0.615458
vt 0.543140 0.581058
vt 0.512538 0.617309
vt 0.527715 0.586605
vt 0.752866 0.602918
vt 0.752725 0.603377
vt 0.751749 0.602226
vt 0.751300 0.601921
vt 0.986213 0.581058
vt 0.969691 0.611417
vt 0.956212 0.583921
vt 0.958119 0.617773
vt 0.972986 0.641876
vt 0.984199 0.698610
vt 0.936028 0.679211
vt 0.940968 0.729687
vt 0.892532 0.707581
vt 0.892532 0.649750
vt 0.931460 0.632540
s 1
f 1/1/1 9/2/2 8/3/3 3/4/4
f 3/4/4 8/3/3 10/5/5 4/6/6
f 5/7/7 12/8/8 13/9/9 6/10/10
f 6/10/10 13/9/9 9/11/2 1/12/1
f 5/7/7 7/13/11 11/14/12 12/8/8
f 7/13/11 4/6/6 10/5/5 11/14/12
f 2/15/13 8/3/3 9/2/2
f 2/15/13 10/5/5 8/3/3
f 2/15/13 11/14/12 10/5/5
f 2/15/13 12/8/8 11/14/12
f 2/15/13 13/9/9 12/8/8
f 2/15/13 9/11/2 13/9/9
f 17/16/14 15/17/14 19/18/14
f 18/19/15 22/20/15 20/21/16 14/22/16
f 16/23/17 21/24/17 22/20/15 18/19/15
f 14/22/16 20/21/16 21/24/17 16/23/17
f 23/25/18 24/26/19 25/27/20 26/28/21
f 15/17/16 24/26/19 23/25/18 20/21/16
f 17/16/22 25/27/20 24/26/19 15/17/22
f 21/24/17 26/28/21 25/27/20 17/16/17
f 20/21/23 23/25/23 26/28/23 21/24/23
f 27/29/24 28/30/25 29/31/26 30/32/27
f 17/16/17 28/30/25 27/29/24 21/24/17
f 19/18/28 29/31/26 28/30/25 17/16/28
f 22/20/15 30/32/27 29/31/26 19/18/15
f 21/24/29 27/29/29 30/32/29 22/20/29
f 31/33/30 32/34/31 33/35/32 34/36/33
f 19/18/15 32/34/31 31/33/30 22/20/15
f 15/17/34 33/35/32 32/34/31 19/18/34
f 20/21/16 34/36/33 33/35/32 15/17/16
f 22/20/35 31/33/35 34/36/35 20/21/35
f 3/37/36 4/38/37 35/39/38
f 4/38/37 7/40/39 35/39/38
f 7/40/39 5/41/40 35/39/38
f 5/41/40 6/42/41 35/39/38
f 6/42/41 1/43/42 35/39/38
f 1/43/42 3/37/36 35/39/38
